<svg xmlns="http://www.w3.org/2000/svg" width="84" height="56" viewBox="0 0 84 56">
  <g id="Group_4" data-name="Group 4" transform="translate(-215 -271)">
    <g id="icons8-air-conditioner-96" transform="translate(209 352)">
      <path id="Path_2" data-name="Path 2" d="M8.5-78.5C6.1-76.2,6-75.5,6-64c0,11.4.2,12.4,3,17.9,1.6,3.2,3.6,6.1,4.5,6.5a37.648,37.648,0,0,0,7.6.6C27-39,27-39,27-42c0-2.8-.2-3-4-3-3.9,0-8-2.6-8-5,0-.6,11.7-1,33-1s33,.4,33,1c0,2.4-4.1,5-8,5-3.8,0-4,.2-4,3v3h6.3c3.4,0,6.9-.6,7.8-1.3s2.8-3.6,4.3-6.4C89.8-51.5,90-52.9,90-64c0-11.5-.1-12.2-2.5-14.5L85.1-81H10.9Zm73.9,5.1c1.2,1.1,1.6,3.6,1.6,9V-57H12v-7.4c0-5.4.4-7.9,1.6-9C14.9-74.8,19.5-75,48-75S81.1-74.8,82.4-73.4Z"/>
    </g>
    <circle id="Ellipse_1" data-name="Ellipse 1" cx="2.5" cy="2.5" r="2.5" transform="translate(239 308)"/>
    <circle id="Ellipse_6" data-name="Ellipse 6" cx="2.5" cy="2.5" r="2.5" transform="translate(237 315)"/>
    <circle id="Ellipse_9" data-name="Ellipse 9" cx="2.5" cy="2.5" r="2.5" transform="translate(232 322)"/>
    <circle id="Ellipse_2" data-name="Ellipse 2" cx="2.5" cy="2.5" r="2.5" transform="translate(254 308)"/>
    <circle id="Ellipse_5" data-name="Ellipse 5" cx="2.5" cy="2.5" r="2.5" transform="translate(254 315)"/>
    <circle id="Ellipse_7" data-name="Ellipse 7" cx="2.5" cy="2.5" r="2.5" transform="translate(254 322)"/>
    <circle id="Ellipse_3" data-name="Ellipse 3" cx="2.5" cy="2.5" r="2.5" transform="translate(269 308)"/>
    <circle id="Ellipse_4" data-name="Ellipse 4" cx="2.5" cy="2.5" r="2.5" transform="translate(271 315)"/>
    <circle id="Ellipse_8" data-name="Ellipse 8" cx="2.5" cy="2.5" r="2.5" transform="translate(276 322)"/>
  </g>
</svg>
