<?xml version="1.0" standalone="no"?>
<!DOCTYPE svg PUBLIC "-//W3C//DTD SVG 20010904//EN"
 "http://www.w3.org/TR/2001/REC-SVG-20010904/DTD/svg10.dtd">
<svg version="1.0" xmlns="http://www.w3.org/2000/svg"
 width="512.000000pt" height="512.000000pt" viewBox="0 0 512.000000 512.000000"
 preserveAspectRatio="xMidYMid meet">
<metadata>
Created by potrace 1.16, written by Peter Selinger 2001-2019
</metadata>
<g transform="translate(0.000000,512.000000) scale(0.100000,-0.100000)"
fill="#000000" stroke="none">
<path d="M2536 4710 c-103 -31 -174 -203 -246 -600 -56 -308 -101 -666 -150
-1175 -21 -225 -60 -705 -60 -743 0 -18 -16 -4 -74 65 -359 428 -909 778
-1518 967 -177 55 -333 89 -369 81 -47 -11 -79 -51 -79 -101 0 -41 5 -50 85
-137 302 -328 436 -485 598 -702 146 -195 251 -359 415 -649 3 -5 -44 31 -103
79 -228 185 -470 311 -746 390 -161 46 -199 51 -237 31 -39 -20 -52 -44 -52
-95 0 -37 8 -49 72 -121 325 -359 480 -572 608 -835 95 -192 140 -333 164
-512 l6 -43 -245 0 -245 0 -32 -29 c-28 -25 -33 -36 -33 -75 0 -36 6 -51 28
-73 l27 -28 2328 -3 c1280 -1 2342 0 2361 3 80 15 111 117 52 176 l-29 29
-396 0 -396 0 6 43 c25 180 70 321 164 512 123 250 328 536 550 770 118 124
130 142 130 186 0 51 -13 75 -52 95 -38 20 -76 15 -240 -32 -479 -137 -882
-434 -1118 -825 -27 -46 -50 -81 -50 -78 0 13 70 197 108 285 222 506 626
1090 1106 1599 199 211 206 220 206 269 0 29 -6 49 -21 65 -39 42 -61 43 -203
16 -634 -121 -1213 -424 -1668 -873 -77 -76 -119 -111 -122 -101 -2 8 -16 151
-31 319 -79 915 -180 1522 -285 1730 -54 106 -125 146 -214 120z m103 -462
c76 -335 143 -861 211 -1662 11 -132 20 -253 20 -270 0 -22 -16 -53 -51 -101
-115 -159 -249 -400 -324 -582 -21 -51 -41 -93 -44 -93 -4 0 -25 39 -46 87
-22 49 -61 128 -88 177 l-49 89 16 231 c79 1084 183 1922 278 2244 l21 73 13
-30 c7 -16 26 -90 43 -163z m1940 -1090 c-645 -719 -1087 -1504 -1208 -2148
-23 -120 -41 -276 -41 -350 l0 -50 -85 0 -85 0 0 103 c1 265 85 603 237 956
60 139 59 192 -7 226 -67 35 -117 10 -160 -82 -165 -346 -264 -725 -277 -1051
l-6 -152 -141 0 -141 0 -23 168 c-13 92 -35 222 -51 289 l-28 121 32 103 c142
462 438 923 809 1262 362 330 767 557 1264 706 2 1 -38 -45 -89 -101z m-3834
-253 c50 -21 131 -58 180 -82 777 -390 1270 -990 1454 -1773 25 -107 71 -382
71 -426 0 -12 -60 -14 -389 -14 l-388 0 -7 102 c-45 655 -428 1417 -1099 2186
l-98 112 93 -34 c51 -18 134 -50 183 -71z m-105 -1095 c313 -176 557 -440 680
-736 37 -90 86 -259 100 -349 6 -38 13 -80 16 -92 l4 -23 -189 0 -190 0 -5 33
c-3 17 -8 57 -11 87 -24 219 -170 569 -348 835 -41 61 -185 255 -232 312 l-26
32 63 -28 c35 -16 97 -48 138 -71z m4015 68 c-242 -299 -408 -579 -506 -853
-35 -99 -66 -222 -74 -295 -3 -30 -8 -70 -11 -87 l-5 -33 -190 0 -189 0 4 22
c3 13 10 55 16 93 6 39 25 117 41 175 123 428 398 742 849 967 47 23 86 42 88
43 2 0 -8 -15 -23 -32z"/>
<path d="M3427 2192 c-51 -53 -45 -131 12 -165 78 -46 161 5 161 99 0 85 -114
128 -173 66z"/>
<path d="M29 581 c-53 -54 -34 -148 36 -171 93 -31 172 55 130 143 -30 64
-115 78 -166 28z"/>
</g>
</svg>
