<svg xmlns="http://www.w3.org/2000/svg" width="69.473" height="83.803" viewBox="0 0 69.473 83.803">
  <g id="Group_5" data-name="Group 5" transform="translate(-122 -373.254)">
    <path id="Path_5" data-name="Path 5" d="M82.315-510.511a15.185,15.185,0,0,0-6.156,3.518L74.5-505.385l1.005,1.055a14.436,14.436,0,0,0,5.6,3.493c1.483.452,2.337.5,10.277.5h8.644l-.151-.578c-1.206-4.272-5.553-8.368-10.177-9.6A20.279,20.279,0,0,0,82.315-510.511Z" transform="translate(66.22 884.104)"/>
    <path id="Path_7" data-name="Path 7" d="M62.975-450.912c.075,6.709.126,7.513.6,8.795a14.669,14.669,0,0,0,13.8,9.875,14.574,14.574,0,0,0,13.745-9.8c.5-1.307.578-2.086.653-6.433l.075-4.95-9.875-.075c-9.5-.1-9.951-.126-11.634-.678a25.623,25.623,0,0,1-6.458-3.342l-.98-.779Z" transform="translate(74.906 844.759)"/>
    <path id="Subtraction_1" data-name="Subtraction 1" d="M359.247-399H324v-8a18.882,18.882,0,0,1,1.493-7.4,18.937,18.937,0,0,1,4.072-6.039,18.936,18.936,0,0,1,6.039-4.072A18.881,18.881,0,0,1,343-426h22a19.95,19.95,0,0,1,10.54,3H375.5a17.385,17.385,0,0,0-12.374,5.126A17.385,17.385,0,0,0,358-405.5a17.413,17.413,0,0,0,1.247,6.5Z" transform="translate(-202 846)"/>
    <g id="Group_4" data-name="Group 4" transform="translate(-38.342 -56.607)">
      <path id="Path_11" data-name="Path 11" d="M182.966-254.714a15.942,15.942,0,0,0-6.278,2.764l-.588.425.675.888a19.842,19.842,0,0,1,3.564,8.629l.163,1.1h3.714v-7c0-6.591-.012-7-.213-6.991A8.611,8.611,0,0,0,182.966-254.714Z" transform="translate(27.79 736.731)" stroke="#fff" stroke-width="0.1"/>
      <path id="Path_12" data-name="Path 12" d="M271-248.184v7.016h3.714l.15-1.038a19.639,19.639,0,0,1,3.389-8.441,8.38,8.38,0,0,0,.75-1.15,14.821,14.821,0,0,0-3.439-2.126,19.371,19.371,0,0,0-4.027-1.188L271-255.2Z" transform="translate(-55.242 736.992)" stroke="#fff" stroke-width="0.1"/>
      <path id="Path_13" data-name="Path 13" d="M131.539-205.037a15.65,15.65,0,0,0-1.726,3.414,20.156,20.156,0,0,0-.813,3.277c0,.213.238.225,3.252.225,2.514,0,3.252-.038,3.252-.163,0-.075-.138-.738-.3-1.463a16.22,16.22,0,0,0-1.476-4A15.977,15.977,0,0,0,132.252-206,5.78,5.78,0,0,0,131.539-205.037Z" transform="translate(69 693.944)" stroke="#fff" stroke-width="0.1"/>
      <path id="Path_14" data-name="Path 14" d="M333.364-205.037a16.364,16.364,0,0,0-2.476,6.378l-.088.538h3.264c3.026,0,3.264-.013,3.264-.225a18.264,18.264,0,0,0-1.526-4.965A17.89,17.89,0,0,0,334.077-206,6.7,6.7,0,0,0,333.364-205.037Z" transform="translate(-107.563 693.944)" stroke="#fff" stroke-width="0.1"/>
      <path id="Path_15" data-name="Path 15" d="M129-112.812a16.9,16.9,0,0,0,1.526,5,12.279,12.279,0,0,0,1.713,2.689,12.1,12.1,0,0,0,1.676-2.576,16.467,16.467,0,0,0,1.351-3.864c.125-.625.238-1.2.238-1.288,0-.113-.738-.15-3.252-.15C129.4-113,129-112.975,129-112.812Z" transform="translate(69 612.575)" stroke="#fff" stroke-width="0.1"/>
      <path id="Path_16" data-name="Path 16" d="M180.315-112.287a20.592,20.592,0,0,1-3.964,9.554l-.35.438,1.188.788a16.065,16.065,0,0,0,6.228,2.451l.713.088V-113H180.4Z" transform="translate(27.878 612.575)" stroke="#fff" stroke-width="0.1"/>
      <path id="Path_17" data-name="Path 17" d="M271-106c0,6.966,0,7,.25,7a17.217,17.217,0,0,0,4.94-1.463,13.944,13.944,0,0,0,2.776-1.851.56.56,0,0,0-.188-.475,20.776,20.776,0,0,1-2.064-3.277,20.42,20.42,0,0,1-1.9-6.228l-.088-.713H271Z" transform="translate(-55.242 612.575)" stroke="#fff" stroke-width="0.1"/>
      <path id="Path_18" data-name="Path 18" d="M331.075-112.475a17.078,17.078,0,0,0,1.551,4.84,11.844,11.844,0,0,0,1.638,2.514,12.279,12.279,0,0,0,1.713-2.689,16.382,16.382,0,0,0,1.526-5c0-.163-.4-.188-3.252-.188H331Z" transform="translate(-107.738 612.575)" stroke="#fff" stroke-width="0.1"/>
    </g>
  </g>
</svg>
