<svg xmlns="http://www.w3.org/2000/svg" width="42.427" height="49.431" viewBox="0 0 42.427 49.431">
  <g id="coach" transform="translate(-0.047 511.998)">
    <path id="Path_119" data-name="Path 119" d="M131.988-511.843a11.368,11.368,0,0,0-7.882,6.357,9.787,9.787,0,0,0-.912,3.4c.05.124.182.133,1.235.091a8.759,8.759,0,0,0,4.318-1.127,10.3,10.3,0,0,1,5.4-1.293,10.505,10.505,0,0,1,5.429,1.26,10.207,10.207,0,0,0,2.611.986,12.189,12.189,0,0,0,2.934.133c.257-.182-.29-2.254-.945-3.622a11.3,11.3,0,0,0-7.94-6.216c-.356-.066-.688-.124-.729-.124a13.779,13.779,0,0,0-.075,2.031c0,1.881-.017,2.064-.166,2.362a1.31,1.31,0,0,1-1.086.663,1.4,1.4,0,0,1-1.077-.68c-.141-.282-.157-.506-.157-2.346,0-1.881-.008-2.031-.141-2.022a6.916,6.916,0,0,0-.817.147Z" transform="translate(-112.924)"/>
    <path id="Path_120" data-name="Path 120" d="M103.355-390.63a9.272,9.272,0,0,0-2.843.97,11.2,11.2,0,0,1-5.006,1.434c-1.981.141-2.66.39-3.44,1.252a3.708,3.708,0,0,0-.539,4.194,4.537,4.537,0,0,0,1.649,1.616l.464.224.091.646a11.382,11.382,0,0,0,1.7,4.351,6.773,6.773,0,0,0,.448.646,2,2,0,0,0-.141-.439,3.751,3.751,0,0,1,.244-3.088,3.751,3.751,0,0,1,2.483-1.852c.274-.058,1.566-.091,3.514-.091,3,0,3.075,0,3.39.182a1.432,1.432,0,0,1,.655,1.061,1.33,1.33,0,0,1-.7,1.069c-.3.149-.506.174-1.475.174H102.73l.108.431a3.725,3.725,0,0,1-1.939,4.119,3.609,3.609,0,0,1-3.282.017,3.815,3.815,0,0,0-.522-.232,12.509,12.509,0,0,0,1.674,1.318,10.784,10.784,0,0,0,3.779,1.566,12.937,12.937,0,0,0,4.3.05,10.887,10.887,0,0,0,5.768-3.083,10.954,10.954,0,0,0,3.207-6.2l.091-.646.464-.224a4.537,4.537,0,0,0,1.649-1.616,3.734,3.734,0,0,0-1.334-4.873l-.431-.282-1.417-.058a10.037,10.037,0,0,1-5.1-1.326,11.253,11.253,0,0,0-2.776-1.152,13.951,13.951,0,0,0-3.614-.158Zm-1.724,3.813a1.308,1.308,0,0,1,.663,1.077,1.324,1.324,0,0,1-1.243,1.243,1.308,1.308,0,0,1-1.077-.663,1.161,1.161,0,0,1,0-1.16,1.2,1.2,0,0,1,.722-.6,1.2,1.2,0,0,1,.935.1Zm7.459,0a1.308,1.308,0,0,1,.663,1.077,1.308,1.308,0,0,1-.663,1.077,1.553,1.553,0,0,1-.58.166,1.308,1.308,0,0,1-1.077-.663,1.161,1.161,0,0,1,0-1.16,1.2,1.2,0,0,1,.722-.6,1.2,1.2,0,0,1,.935.1Z" transform="translate(-83.52 -109.685)"/>
    <path id="Path_121" data-name="Path 121" d="M174.63-240.657A1.267,1.267,0,0,0,174-239.6a1.321,1.321,0,0,0,1.227,1.243,1.246,1.246,0,0,0,1.086-.688,1.645,1.645,0,0,0,.174-.555,1.645,1.645,0,0,0-.174-.555,1.167,1.167,0,0,0-.728-.633,1.167,1.167,0,0,0-.955.131Z" transform="translate(-159.536 -246.596)"/>
    <path id="Path_122" data-name="Path 122" d="M10.61-143.283a19.922,19.922,0,0,0-4.782,1.12c-2.752,1.234-4.774,4.024-5.536,7.644a14.041,14.041,0,0,0-.224,2.7C.026-130.1.035-129.976.2-129.561a1.357,1.357,0,0,0,.506.643c.323.207.439.207,20.554.207s20.231,0,20.554-.207a1.357,1.357,0,0,0,.506-.643c.166-.415.174-.539.133-2.261a14.04,14.04,0,0,0-.224-2.7c-.845-4.014-3.241-6.991-6.465-8-.58-.187-4.832-.975-5.628-1.048l-.365-.031-.224.882a10.122,10.122,0,0,1-5.528,7.084,6.681,6.681,0,0,1-5.478.01c-2.685-1.11-4.691-3.661-5.578-7.094a3.669,3.669,0,0,0-.3-.892C12.632-143.615,11.7-143.47,10.61-143.283Z" transform="translate(0 -333.856)"/>
    <path id="Path_123" data-name="Path 123" d="M187.183-136.685a6.738,6.738,0,0,0,1.368,1.857,5.987,5.987,0,0,0,3.846,1.7,5.983,5.983,0,0,0,4.666-1.7,6.968,6.968,0,0,0,1.376-1.848l.083-.215-.638.273a14.346,14.346,0,0,1-3.663.953,13.181,13.181,0,0,1-6.548-.986l-.572-.249Z" transform="translate(-171.55 -341.021)"/>
  </g>
</svg>
