<?xml version="1.0" standalone="no"?>
<!DOCTYPE svg PUBLIC "-//W3C//DTD SVG 20010904//EN"
 "http://www.w3.org/TR/2001/REC-SVG-20010904/DTD/svg10.dtd">
<svg version="1.0" xmlns="http://www.w3.org/2000/svg"
 width="512.000000pt" height="512.000000pt" viewBox="0 0 512.000000 512.000000"
 preserveAspectRatio="xMidYMid meet">

<g transform="translate(0.000000,512.000000) scale(0.100000,-0.100000)"
fill="#000000" stroke="none">
<path d="M2095 5047 c-63 -17 -129 -50 -181 -93 l-41 -33 -399 -3 -399 -3 -58
-29 c-107 -52 -164 -153 -155 -278 7 -107 63 -189 164 -239 l49 -24 408 -3
408 -3 55 -39 c31 -22 71 -44 90 -50 l34 -12 0 -93 0 -94 -196 -3 -196 -3 -29
-33 c-24 -26 -29 -41 -29 -81 0 -41 5 -54 29 -79 18 -17 45 -32 68 -35 21 -4
208 -7 416 -7 l377 0 0 -70 0 -70 -485 0 -485 0 -32 -29 -33 -29 -3 -126 -4
-126 -302 0 -303 0 -9 32 c-12 42 -65 78 -115 78 -48 0 -95 -38 -109 -88 -15
-55 -13 -1226 3 -1272 14 -39 67 -80 104 -80 39 0 93 30 108 61 10 18 15 58
15 109 l0 80 351 0 352 0 77 -74 c319 -304 802 -299 1131 12 l68 64 51 -11
c68 -15 123 -44 177 -94 42 -39 103 -129 103 -152 0 -5 -15 -17 -33 -25 -18
-8 -41 -31 -52 -52 -18 -34 -19 -40 -5 -79 28 -79 42 -84 285 -87 l214 -3 -82
-96 c-300 -349 -504 -707 -524 -918 -8 -83 11 -200 47 -293 74 -192 237 -351
427 -417 195 -68 386 -55 573 37 68 34 103 60 175 133 100 99 146 175 186 305
34 108 34 265 0 370 -66 200 -254 501 -493 787 -37 45 -68 84 -68 87 0 3 74 6
165 6 187 0 222 8 255 62 37 58 15 130 -50 163 -24 12 -27 22 -38 113 -33 259
-137 520 -289 719 -70 93 -221 237 -310 296 -161 107 -332 174 -520 205 -119
20 -113 12 -113 150 0 136 -33 182 -129 182 l-39 0 -4 149 c-3 133 -5 153 -24
178 -36 48 -55 53 -241 53 l-173 0 0 94 0 94 33 13 c17 7 57 29 87 48 l55 36
405 5 c396 5 406 6 455 28 60 27 119 82 148 137 32 58 31 192 -1 252 -30 57
-86 111 -141 137 -44 20 -63 21 -444 24 l-398 3 -58 45 c-99 77 -244 110 -356
81z m175 -247 c62 -32 94 -81 98 -154 2 -49 -2 -68 -20 -101 -55 -94 -170
-122 -259 -62 -97 65 -113 186 -36 274 57 64 142 81 217 43z m1330 -4135 c74
-31 111 -31 178 0 76 35 114 33 159 -9 32 -29 38 -41 38 -75 0 -106 -130 -177
-310 -169 -79 3 -101 8 -159 37 -71 35 -96 66 -96 121 0 63 50 119 108 120 12
0 49 -11 82 -25z"/>
</g>
</svg>
