<svg xmlns="http://www.w3.org/2000/svg" width="17.288" height="16.603" viewBox="0 0 17.288 16.603">
  <g id="star" transform="translate(-1.488 502.512)">
    <path id="Path_586" data-name="Path 586" d="M8.862-501.494a1.292,1.292,0,0,0-.622.341,12.643,12.643,0,0,0-1.17,2.2,13.178,13.178,0,0,1-1.119,2.12c-.118.085-.081.081-3.113.521-1.643.24-1.727.264-2.011.548a1.363,1.363,0,0,0-.247.348.979.979,0,0,0-.091.548c0,.581-.074.483,1.812,2.326.889.869,1.643,1.626,1.67,1.687a.578.578,0,0,1,.051.2c0,.051-.162,1.031-.358,2.174-.4,2.333-.419,2.495-.274,2.819a1.5,1.5,0,0,0,.612.632,1.406,1.406,0,0,0,1.034.024c.064-.027.96-.49,1.988-1.031s1.92-1,1.984-1.018a.467.467,0,0,1,.237,0c.064.02.984.49,2.045,1.048,1.288.676,1.994,1.031,2.133,1.065a1.278,1.278,0,0,0,1.443-.73c.139-.311.122-.487-.277-2.806-.2-1.143-.358-2.123-.358-2.174a.577.577,0,0,1,.051-.2c.027-.061.781-.818,1.67-1.687,1.853-1.805,1.8-1.741,1.822-2.272a1.081,1.081,0,0,0-.057-.5,1.249,1.249,0,0,0-.778-.75c-.085-.027-1.112-.189-2.285-.358a17.6,17.6,0,0,1-2.282-.382l-.152-.074L11.2-498.912c-.558-1.119-1.058-2.092-1.112-2.16a1.479,1.479,0,0,0-.554-.382A1.689,1.689,0,0,0,8.862-501.494Z" transform="translate(1 -1)" fill="#a3a4a5"/>
  </g>
</svg>
