<svg xmlns="http://www.w3.org/2000/svg" width="19.962" height="18.119" viewBox="0 0 19.962 18.119">
  <g id="heart" transform="translate(-0.19 488)">
    <path id="Path_706" data-name="Path 706" d="M5.157-487.941A5.831,5.831,0,0,0,.5-484.04c-.87,2.6.105,5.533,2.852,8.584a31.173,31.173,0,0,0,5.9,4.959l.917.616.917-.616a31.173,31.173,0,0,0,5.9-4.959c2.747-3.051,3.722-5.981,2.852-8.584A5.824,5.824,0,0,0,14.365-488a5.759,5.759,0,0,0-3.882,1.459,3.345,3.345,0,0,1-.312.258,3.345,3.345,0,0,1-.312-.258,5.786,5.786,0,0,0-3.121-1.416A7.112,7.112,0,0,0,5.157-487.941Z" transform="translate(0 0)" fill="#a3a4a5"/>
  </g>
</svg>
