<?xml version="1.0" standalone="no"?>
<!DOCTYPE svg PUBLIC "-//W3C//DTD SVG 20010904//EN"
 "http://www.w3.org/TR/2001/REC-SVG-20010904/DTD/svg10.dtd">
<svg version="1.0" xmlns="http://www.w3.org/2000/svg"
 width="90.000000pt" height="90.000000pt" viewBox="0 0 90.000000 90.000000"
 preserveAspectRatio="xMidYMid meet">
<metadata>
Created by potrace 1.16, written by Peter Selinger 2001-2019
</metadata>
<g transform="translate(0.000000,90.000000) scale(0.100000,-0.100000)"
fill="#000000" stroke="none">
<path d="M252 798 c-18 -18 -17 -651 1 -666 6 -5 26 -13 44 -16 37 -8 49 -20
58 -59 7 -27 8 -27 95 -27 87 0 88 0 95 27 9 39 21 51 58 59 18 3 38 11 45 16
17 15 18 648 0 666 -17 17 -379 17 -396 0z m348 -168 l0 -60 -150 0 -150 0 0
60 0 60 150 0 150 0 0 -60z m0 -180 l0 -60 -150 0 -150 0 0 60 0 60 150 0 150
0 0 -60z m0 -180 l0 -60 -150 0 -150 0 0 60 0 60 150 0 150 0 0 -60z"/>
</g>
</svg>
