<svg xmlns="http://www.w3.org/2000/svg" width="28.599" height="28.588" viewBox="0 0 28.599 28.588">
  <g id="map_2_" data-name="map (2)" transform="translate(0.009 511.938)">
    <path id="Path_187" data-name="Path 187" d="M126.708-511.9a7.28,7.28,0,0,0-4.25,2.077,8.139,8.139,0,0,0-2.267,5.674,10,10,0,0,0,.826,4.216,32.651,32.651,0,0,0,1.776,3.574,39.209,39.209,0,0,0,4.523,6.126.853.853,0,0,0,.9,0,39.211,39.211,0,0,0,4.523-6.126,32.651,32.651,0,0,0,1.776-3.574,10.033,10.033,0,0,0,.826-4.188,7.991,7.991,0,0,0-2.424-5.813,7.3,7.3,0,0,0-3.864-1.915A12.4,12.4,0,0,0,126.708-511.9Zm1.781,5.149a2.483,2.483,0,0,1,1.714,1.921,2.5,2.5,0,0,1-2.809,2.9,2.511,2.511,0,0,1-2.083-2.8A2.5,2.5,0,0,1,128.489-506.754Z" transform="translate(-113.482 0)"/>
    <path id="Path_188" data-name="Path 188" d="M241.106-391.877a.78.78,0,0,0-.408.692.81.81,0,0,0,.854.888.81.81,0,0,0,.854-.888.832.832,0,0,0-.854-.815A.777.777,0,0,0,241.106-391.877Z" transform="translate(-227.266 -113.241)"/>
    <path id="Path_189" data-name="Path 189" d="M32.122-240.894a.8.8,0,0,0-.313.235c-.14.223-3.646,8.421-3.613,8.454.017.017,1.915-.933,4.227-2.105a43.165,43.165,0,0,0,4.171-2.223,9.487,9.487,0,0,0-.564-.866c-.631-.91-1.39-2.122-1.876-2.993L33.814-241h-.737A2.2,2.2,0,0,0,32.122-240.894Z" transform="translate(-26.63 -255.809)"/>
    <path id="Path_190" data-name="Path 190" d="M181.777-240.765c-.067.134-.4.7-.732,1.256-1.536,2.558-4.132,6-4.9,6.494a2.523,2.523,0,0,1-2.68,0,7.823,7.823,0,0,1-1.446-1.552,3.559,3.559,0,0,0-.514-.57,12.19,12.19,0,0,0-1.5.771c0,.022,1.29,1.335,2.87,2.909l2.876,2.876.91-.475c6.757-3.479,9.979-5.171,9.985-5.238,0-.106-2.619-6.193-2.747-6.377-.173-.257-.463-.329-1.273-.329h-.726Z" transform="translate(-160.515 -255.809)"/>
    <path id="Path_191" data-name="Path 191" d="M4.168-106.018.494-104.136l-.251.586c-.369.854-.335,1.268.117,1.569.156.1.385.106,6.517.106,6.265,0,6.355,0,6.573-.112a.58.58,0,0,0,.223-.156c0-.061-5.718-5.763-5.78-5.757C7.86-107.9,6.184-107.051,4.168-106.018Z" transform="translate(0 -381.476)"/>
    <path id="Path_192" data-name="Path 192" d="M305.564-90.321l-4.964,2.58,5.607.017c6.243.017,5.847.039,6.087-.352s.19-.542-.765-2.775a22.5,22.5,0,0,0-.938-2.049C310.562-92.9,308.3-91.739,305.564-90.321Z" transform="translate(-283.822 -395.638)"/>
  </g>
</svg>
