<svg xmlns="http://www.w3.org/2000/svg" width="29.179" height="29.057" viewBox="0 0 29.179 29.057">
  <g id="house-black-silhouette-without-door" transform="translate(0 -4.89)">
    <path id="Path_91" data-name="Path 91" d="M28.814,19.067a1.46,1.46,0,0,0-.114-2.048L15.659,5.282a1.591,1.591,0,0,0-2.12.025L.454,17.645A1.451,1.451,0,0,0,.391,19.69l.328.351a1.4,1.4,0,0,0,1.964.155l.978-.9V32.483a1.444,1.444,0,0,0,1.423,1.464h5.1a1.444,1.444,0,0,0,1.423-1.464V23.257h6.506v9.226a1.367,1.367,0,0,0,1.337,1.464h5.405a1.444,1.444,0,0,0,1.423-1.464v-13l.6.545c.333.3,1.031.06,1.56-.539Z" transform="translate(0)"/>
  </g>
</svg>
