<?xml version="1.0" standalone="no"?>
<!DOCTYPE svg PUBLIC "-//W3C//DTD SVG 20010904//EN"
 "http://www.w3.org/TR/2001/REC-SVG-20010904/DTD/svg10.dtd">
<svg version="1.0" xmlns="http://www.w3.org/2000/svg"
 width="512.000000pt" height="512.000000pt" viewBox="0 0 512.000000 512.000000"
 preserveAspectRatio="xMidYMid meet">

<g transform="translate(0.000000,512.000000) scale(0.100000,-0.100000)"
fill="#000000" stroke="none">
<path d="M0 2560 l0 -2560 150 0 150 0 0 170 0 170 653 -2 652 -3 3 -167 2
-168 150 0 150 0 0 170 0 170 650 0 650 0 0 -170 0 -170 150 0 150 0 2 168 3
167 653 3 652 2 0 -170 0 -170 150 0 150 0 0 2560 0 2560 -2560 0 -2560 0 0
-2560z m1610 170 l0 -2090 -655 0 -655 0 0 2090 0 2090 655 0 655 0 0 -2090z
m1600 0 l0 -2090 -650 0 -650 0 0 2090 0 2090 650 0 650 0 0 -2090z m1610 0
l0 -2090 -655 0 -655 0 0 2090 0 2090 655 0 655 0 0 -2090z"/>
<path d="M522 4373 l3 -148 428 -3 427 -2 0 150 0 150 -430 0 -431 0 3 -147z"/>
<path d="M522 3803 l3 -148 428 -3 427 -2 0 150 0 150 -430 0 -431 0 3 -147z"/>
<path d="M530 2645 l0 -315 150 0 150 0 0 315 0 315 -150 0 -150 0 0 -315z"/>
<path d="M527 1803 c-4 -3 -7 -71 -7 -150 l0 -143 430 0 430 0 0 150 0 150
-423 0 c-233 0 -427 -3 -430 -7z"/>
<path d="M527 1233 c-4 -3 -7 -71 -7 -150 l0 -143 430 0 430 0 0 150 0 150
-423 0 c-233 0 -427 -3 -430 -7z"/>
<path d="M2130 4370 l0 -150 430 0 430 0 0 150 0 150 -430 0 -430 0 0 -150z"/>
<path d="M2130 3800 l0 -150 430 0 430 0 0 150 0 150 -430 0 -430 0 0 -150z"/>
<path d="M2130 2645 l0 -315 150 0 150 0 0 315 0 315 -150 0 -150 0 0 -315z"/>
<path d="M2137 1803 c-4 -3 -7 -71 -7 -150 l0 -143 430 0 431 0 -3 148 -3 147
-421 3 c-231 1 -424 -1 -427 -5z"/>
<path d="M2137 1233 c-4 -3 -7 -71 -7 -150 l0 -143 430 0 431 0 -3 148 -3 147
-421 3 c-231 1 -424 -1 -427 -5z"/>
<path d="M3740 4370 l0 -150 428 2 427 3 3 148 3 147 -431 0 -430 0 0 -150z"/>
<path d="M3740 3800 l0 -150 428 2 427 3 3 148 3 147 -431 0 -430 0 0 -150z"/>
<path d="M3740 2645 l0 -315 150 0 150 0 0 315 0 315 -150 0 -150 0 0 -315z"/>
<path d="M3740 1660 l0 -150 430 0 431 0 -3 148 -3 147 -427 3 -428 2 0 -150z"/>
<path d="M3740 1090 l0 -150 430 0 431 0 -3 148 -3 147 -427 3 -428 2 0 -150z"/>
</g>
</svg>
