<svg xmlns="http://www.w3.org/2000/svg" width="16.783" height="17.492" viewBox="0 0 16.783 17.492">
  <g id="discount" transform="translate(-10.359 0.003)">
    <path id="Union_8" data-name="Union 8" d="M1720.082,4825.8l-1.067-1.033a.51.51,0,0,0-.431-.141l-1.47.208a1.669,1.669,0,0,1-.219.016,1.52,1.52,0,0,1-1.5-1.262l-.255-1.462a.516.516,0,0,0-.266-.367l-1.313-.7a1.519,1.519,0,0,1-.655-2.016l.653-1.334a.517.517,0,0,0,0-.455l-.653-1.333a1.52,1.52,0,0,1,.655-2.017l1.313-.7a.52.52,0,0,0,.266-.368l.255-1.462a1.521,1.521,0,0,1,1.716-1.247l1.47.208a.513.513,0,0,0,.431-.141l1.067-1.033a1.519,1.519,0,0,1,2.121,0l1.067,1.033a.511.511,0,0,0,.43.141l1.472-.208a1.518,1.518,0,0,1,1.714,1.247l.257,1.462a.516.516,0,0,0,.266.368l1.312.7a1.516,1.516,0,0,1,.655,2.017l-.652,1.333a.516.516,0,0,0,0,.455l.652,1.333a1.516,1.516,0,0,1-.655,2.017l-1.312.7a.508.508,0,0,0-.265.367l-.258,1.462a1.516,1.516,0,0,1-1.714,1.246l-1.472-.208a.508.508,0,0,0-.43.141l-1.067,1.033a1.518,1.518,0,0,1-2.121,0Zm1.227-5.624a1.85,1.85,0,1,0,1.85-1.85A1.852,1.852,0,0,0,1721.309,4820.179Zm2.805-6.377-6.658,6.658a.5.5,0,0,0,.713.713l6.658-6.657a.5.5,0,0,0-.714-.714Zm-6.84,1a1.85,1.85,0,1,0,1.849-1.85A1.854,1.854,0,0,0,1717.274,4814.8Zm5.045,5.381a.841.841,0,1,1,.841.839A.842.842,0,0,1,1722.319,4820.179Zm-4.036-5.381a.841.841,0,1,1,.841.84A.842.842,0,0,1,1718.283,4814.8Z" transform="translate(-1702.391 -4808.745)" fill="#b40000"/>
  </g>
</svg>
