<?xml version="1.0" standalone="no"?>
<!DOCTYPE svg PUBLIC "-//W3C//DTD SVG 20010904//EN"
 "http://www.w3.org/TR/2001/REC-SVG-20010904/DTD/svg10.dtd">
<svg version="1.0" xmlns="http://www.w3.org/2000/svg"
 width="512.000000pt" height="512.000000pt" viewBox="0 0 512.000000 512.000000"
 preserveAspectRatio="xMidYMid meet">

<g transform="translate(0.000000,512.000000) scale(0.100000,-0.100000)"
fill="#000000" stroke="none">
<path d="M2380 5114 c-19 -2 -78 -9 -130 -14 -330 -36 -695 -160 -990 -336
-375 -224 -680 -529 -904 -904 -175 -292 -291 -632 -338 -990 -16 -123 -16
-497 0 -620 82 -623 356 -1150 820 -1581 256 -239 575 -425 922 -539 274 -91
491 -124 800 -124 228 0 329 9 530 50 689 141 1304 583 1674 1204 175 292 291
632 338 990 16 123 16 497 0 620 -47 358 -163 698 -338 990 -224 375 -529 680
-904 904 -289 173 -634 291 -980 336 -88 12 -438 21 -500 14z m390 -305 c988
-90 1810 -828 2004 -1801 164 -815 -128 -1647 -764 -2180 -911 -763 -2265
-688 -3083 172 -795 835 -837 2129 -99 3010 478 570 1199 867 1942 799z"/>
<path d="M1900 2561 l0 -1321 150 0 150 0 0 419 0 420 388 3 c365 4 391 6 462
27 240 71 451 245 554 458 117 238 127 525 27 764 -87 210 -280 402 -483 481
-155 61 -160 61 -725 65 l-523 4 0 -1320z m1090 990 c100 -35 169 -78 240
-150 224 -227 228 -601 8 -836 -76 -82 -170 -139 -272 -165 -72 -18 -111 -20
-423 -20 l-343 0 0 601 0 601 363 -4 c346 -4 365 -5 427 -27z"/>
</g>
</svg>
