<?xml version="1.0" standalone="no"?>
<!DOCTYPE svg PUBLIC "-//W3C//DTD SVG 20010904//EN"
 "http://www.w3.org/TR/2001/REC-SVG-20010904/DTD/svg10.dtd">
<svg version="1.0" xmlns="http://www.w3.org/2000/svg"
 width="512.000000pt" height="512.000000pt" viewBox="0 0 512.000000 512.000000"
 preserveAspectRatio="xMidYMid meet">

<g transform="translate(0.000000,512.000000) scale(0.100000,-0.100000)"
fill="#000000" stroke="none">
<path d="M1169 4946 c-160 -61 -458 -355 -735 -723 -110 -147 -196 -279 -241
-373 l-37 -74 12 -101 c92 -795 754 -1834 1642 -2576 627 -523 1303 -862 1860
-930 92 -12 97 -11 155 12 236 97 794 545 1005 808 134 167 154 248 92 374
-43 87 -91 129 -345 298 -257 171 -433 277 -614 367 -245 123 -355 147 -458
98 -69 -32 -121 -81 -260 -245 -66 -77 -126 -141 -133 -141 -22 0 -184 66
-281 114 -358 181 -670 464 -878 799 -69 112 -160 298 -193 394 l-23 70 39 35
c21 19 86 75 144 125 179 152 221 211 228 321 3 46 -1 80 -18 133 -31 95 -139
315 -240 484 -114 192 -360 562 -416 624 -81 90 -221 139 -305 107z"/>
<path d="M2655 4786 c-94 -41 -124 -168 -58 -247 36 -42 80 -59 155 -59 299 0
657 -111 925 -285 247 -160 463 -398 597 -656 129 -246 184 -452 204 -757 9
-131 17 -153 76 -196 39 -29 133 -29 172 0 73 54 84 105 64 315 -67 731 -500
1361 -1155 1684 -217 107 -435 171 -683 200 -155 18 -257 19 -297 1z"/>
<path d="M2655 3987 c-97 -45 -124 -172 -54 -252 37 -41 68 -52 184 -59 238
-15 445 -112 620 -290 170 -174 254 -363 274 -622 8 -112 19 -136 75 -178 39
-29 133 -29 172 0 75 55 87 123 59 315 -40 279 -160 517 -364 720 -231 232
-511 358 -826 374 -83 4 -118 2 -140 -8z"/>
</g>
</svg>
