<svg xmlns="http://www.w3.org/2000/svg" width="17.852" height="17.833" viewBox="0 0 17.852 17.833">
  <g id="phone-call" transform="translate(-15.6 495.582)">
    <path id="Path_735" data-name="Path 735" d="M19.368-495.545a9.282,9.282,0,0,0-2.734,2.689,9.311,9.311,0,0,0-.9,1.387l-.138.275.045.376c.342,2.957,2.8,6.822,6.108,9.582a14.409,14.409,0,0,0,6.918,3.459.808.808,0,0,0,.577-.045,14.284,14.284,0,0,0,3.738-3.005c.5-.621.573-.922.342-1.391-.16-.324-.338-.48-1.283-1.108a20.531,20.531,0,0,0-2.284-1.365c-.911-.458-1.32-.547-1.7-.365-.257.119-.45.3-.967.911a4.051,4.051,0,0,1-.495.524,6.687,6.687,0,0,1-1.045-.424,8.282,8.282,0,0,1-3.266-2.972,9.43,9.43,0,0,1-.718-1.465l-.086-.26.145-.13c.078-.071.32-.279.536-.465.666-.565.822-.785.848-1.194a1.193,1.193,0,0,0-.067-.495,11.928,11.928,0,0,0-.893-1.8c-.424-.714-1.339-2.09-1.547-2.321A1.189,1.189,0,0,0,19.368-495.545Z" transform="translate(0 0)" fill="#a3a4a5"/>
    <path id="Path_736" data-name="Path 736" d="M256.5-479.853a.6.6,0,0,0-.216.919.674.674,0,0,0,.577.219,6.743,6.743,0,0,1,3.441,1.06,6.628,6.628,0,0,1,2.221,2.44,6.4,6.4,0,0,1,.759,2.816c.033.487.063.569.283.729a.673.673,0,0,0,.64,0c.272-.2.312-.391.238-1.172a7.723,7.723,0,0,0-4.3-6.264,7.572,7.572,0,0,0-2.54-.744A2.841,2.841,0,0,0,256.5-479.853Z" transform="translate(-231.607 -15.097)" fill="#a3a4a5"/>
    <path id="Path_737" data-name="Path 737" d="M256.521-399.656a.6.6,0,0,0-.2.937c.138.153.253.193.684.219a3.453,3.453,0,0,1,2.306,1.079,3.457,3.457,0,0,1,1.019,2.314c.03.417.071.506.279.662a.673.673,0,0,0,.64,0c.279-.2.324-.458.219-1.172a4.594,4.594,0,0,0-1.354-2.678,4.566,4.566,0,0,0-3.072-1.391A1.268,1.268,0,0,0,256.521-399.656Z" transform="translate(-231.626 -92.322)" fill="#a3a4a5"/>
  </g>
</svg>
