<svg id="user" xmlns="http://www.w3.org/2000/svg" width="22.827" height="27.361" viewBox="0 0 22.827 27.361">
  <path id="Path_104" data-name="Path 104" d="M93.621,13.18a6.376,6.376,0,0,0,4.66-1.931,6.376,6.376,0,0,0,1.93-4.659A6.377,6.377,0,0,0,98.281,1.93a6.589,6.589,0,0,0-9.319,0A6.377,6.377,0,0,0,87.031,6.59a6.376,6.376,0,0,0,1.931,4.66A6.378,6.378,0,0,0,93.621,13.18Zm0,0" transform="translate(-82.38 0)"/>
  <path id="Path_105" data-name="Path 105" d="M22.772,255.139a16.277,16.277,0,0,0-.222-1.729,13.62,13.62,0,0,0-.425-1.738,8.586,8.586,0,0,0-.715-1.621,6.118,6.118,0,0,0-1.078-1.4,4.751,4.751,0,0,0-1.548-.973,5.349,5.349,0,0,0-1.976-.358,2.006,2.006,0,0,0-1.071.454c-.321.209-.7.452-1.116.719a6.393,6.393,0,0,1-1.444.636,5.606,5.606,0,0,1-3.532,0A6.377,6.377,0,0,1,8.2,248.49c-.415-.265-.791-.507-1.117-.72a2,2,0,0,0-1.071-.454,5.342,5.342,0,0,0-1.976.358,4.746,4.746,0,0,0-1.548.973,6.119,6.119,0,0,0-1.077,1.4A8.6,8.6,0,0,0,.7,251.672a13.653,13.653,0,0,0-.425,1.738,16.219,16.219,0,0,0-.222,1.729c-.036.524-.055,1.067-.055,1.616a4.543,4.543,0,0,0,1.349,3.437,4.857,4.857,0,0,0,3.477,1.268H18a4.856,4.856,0,0,0,3.477-1.268,4.541,4.541,0,0,0,1.35-3.437C22.827,256.2,22.809,255.66,22.772,255.139Zm0,0" transform="translate(0 -234.1)"/>
</svg>
