<svg id="user" xmlns="http://www.w3.org/2000/svg" width="15.752" height="18.881" viewBox="0 0 15.752 18.881">
  <path id="Path_104" data-name="Path 104" d="M91.579,9.1a4.4,4.4,0,0,0,3.215-1.332,4.4,4.4,0,0,0,1.332-3.215,4.4,4.4,0,0,0-1.332-3.215,4.547,4.547,0,0,0-6.431,0,4.4,4.4,0,0,0-1.332,3.215,4.4,4.4,0,0,0,1.332,3.215A4.4,4.4,0,0,0,91.579,9.1Zm0,0" transform="translate(-83.822 0)" fill="#a3a4a5"/>
  <path id="Path_105" data-name="Path 105" d="M15.714,252.715a11.233,11.233,0,0,0-.153-1.193,9.4,9.4,0,0,0-.293-1.2,5.925,5.925,0,0,0-.493-1.119,4.223,4.223,0,0,0-.744-.969,3.278,3.278,0,0,0-1.068-.671,3.691,3.691,0,0,0-1.364-.247,1.384,1.384,0,0,0-.739.313c-.222.145-.481.312-.77.5a4.411,4.411,0,0,1-1,.439,3.868,3.868,0,0,1-2.437,0,4.4,4.4,0,0,1-1-.439c-.287-.183-.546-.35-.771-.5a1.382,1.382,0,0,0-.739-.313,3.686,3.686,0,0,0-1.363.247,3.275,3.275,0,0,0-1.068.671,4.222,4.222,0,0,0-.743.969,5.936,5.936,0,0,0-.493,1.119,9.421,9.421,0,0,0-.293,1.2,11.193,11.193,0,0,0-.153,1.193c-.025.361-.038.736-.038,1.115A3.135,3.135,0,0,0,.931,256.2a3.352,3.352,0,0,0,2.4.875h9.091a3.351,3.351,0,0,0,2.4-.875,3.134,3.134,0,0,0,.931-2.372C15.752,253.45,15.74,253.074,15.714,252.715Zm0,0" transform="translate(0 -238.196)" fill="#a3a4a5"/>
</svg>
