<?xml version="1.0" standalone="no"?>
<!DOCTYPE svg PUBLIC "-//W3C//DTD SVG 20010904//EN"
 "http://www.w3.org/TR/2001/REC-SVG-20010904/DTD/svg10.dtd">
<svg version="1.0" xmlns="http://www.w3.org/2000/svg"
 width="512.000000pt" height="512.000000pt" viewBox="0 0 512.000000 512.000000"
 preserveAspectRatio="xMidYMid meet">
<metadata>
Created by potrace 1.16, written by Peter Selinger 2001-2019
</metadata>
<g transform="translate(0.000000,512.000000) scale(0.100000,-0.100000)"
fill="#000000" stroke="none">
<path d="M2340 5101 c-318 -68 -582 -273 -726 -566 -150 -305 -150 -635 1
-940 146 -296 409 -498 737 -566 142 -29 349 -23 485 15 413 114 713 457 772
880 77 555 -299 1076 -852 1181 -109 21 -309 19 -417 -4z m290 -613 c63 -43
74 -68 78 -178 l4 -100 90 0 c73 0 97 -4 128 -21 97 -54 100 -173 6 -243 -25
-19 -44 -21 -214 -24 -211 -3 -237 3 -280 68 -23 34 -23 39 -20 236 3 185 5
204 23 224 55 62 128 77 185 38z"/>
<path d="M4563 5092 l-53 -26 0 -1103 0 -1103 155 0 155 0 0 1076 c0 1192 4
1121 -65 1164 -47 29 -125 26 -192 -8z"/>
<path d="M4063 4829 l-153 -80 0 -945 0 -944 155 0 155 0 0 1025 c0 564 -1
1025 -2 1025 -2 0 -72 -37 -155 -81z"/>
<path d="M786 3871 c-283 -135 -428 -209 -450 -230 l-31 -31 -3 -375 -3 -375
828 0 828 0 -67 39 c-93 54 -202 138 -273 210 l-59 61 -346 0 c-327 0 -347 1
-378 20 -98 60 -94 193 8 247 41 22 53 23 277 23 128 0 233 3 233 7 0 4 -16
45 -36 90 -47 109 -81 251 -97 395 l-12 117 -419 -198z"/>
<path d="M3535 3143 c-88 -95 -180 -170 -286 -233 l-82 -50 226 0 227 0 0 180
c0 99 -3 179 -7 179 -5 -1 -39 -35 -78 -76z"/>
<path d="M66 2541 c-58 -38 -66 -63 -66 -206 0 -152 12 -183 83 -215 41 -19
97 -20 2477 -20 2380 0 2436 1 2477 20 71 32 83 63 83 215 0 143 -8 168 -66
206 -28 18 -96 19 -2494 19 -2398 0 -2466 -1 -2494 -19z"/>
<path d="M300 1655 l0 -155 393 0 c446 0 441 1 484 -80 23 -42 23 -49 23 -369
0 -319 -1 -327 -23 -366 -42 -75 -41 -75 -485 -75 l-393 0 3 -265 3 -265 38
-37 37 -38 640 -3 640 -2 0 687 c0 666 1 688 20 728 13 26 34 49 59 63 l39 22
782 0 782 0 39 -22 c25 -14 46 -37 59 -63 19 -40 20 -62 20 -728 l0 -687 640
2 640 3 37 38 38 37 3 265 3 265 -393 0 c-444 0 -442 0 -485 76 -22 38 -23 46
-23 364 0 298 2 328 19 367 14 30 31 48 60 62 39 20 56 21 431 21 l390 0 0
155 0 155 -2260 0 -2260 0 0 -155z"/>
<path d="M300 1055 l0 -155 289 0 c250 0 292 2 305 16 13 12 16 40 16 138 0
106 -2 125 -18 139 -16 15 -53 17 -305 17 l-287 0 0 -155z"/>
<path d="M1967 1192 c-15 -17 -17 -73 -17 -605 l0 -587 230 0 230 0 0 605 0
605 -213 0 c-195 0 -215 -2 -230 -18z"/>
<path d="M2710 605 l0 -605 230 0 230 0 0 588 c0 558 -1 590 -18 605 -16 15
-47 17 -230 17 l-212 0 0 -605z"/>
<path d="M4227 1192 c-24 -26 -25 -253 -1 -276 13 -14 55 -16 305 -16 l289 0
0 155 0 155 -288 0 c-267 0 -290 -1 -305 -18z"/>
</g>
</svg>
