<?xml version="1.0" standalone="no"?>
<!DOCTYPE svg PUBLIC "-//W3C//DTD SVG 20010904//EN"
 "http://www.w3.org/TR/2001/REC-SVG-20010904/DTD/svg10.dtd">
<svg version="1.0" xmlns="http://www.w3.org/2000/svg"
 width="512.000000pt" height="512.000000pt" viewBox="0 0 512.000000 512.000000"
 preserveAspectRatio="xMidYMid meet">

<g transform="translate(0.000000,512.000000) scale(0.100000,-0.100000)"
fill="#000000" stroke="none">
<path d="M1800 4555 c-8 -2 -49 -9 -90 -15 -359 -59 -693 -308 -864 -647 -88
-176 -116 -303 -123 -564 l-5 -206 -57 -6 c-78 -9 -170 -42 -238 -86 -306
-200 -351 -615 -96 -868 58 -57 183 -133 219 -133 12 0 14 -92 14 -551 0 -404
3 -563 12 -593 23 -78 135 -166 212 -166 14 0 16 -26 16 -255 l0 -256 25 -24
c23 -24 28 -25 173 -25 128 0 153 3 171 18 15 12 36 71 77 212 30 107 64 225
75 263 l20 67 1219 0 1219 0 20 -68 c11 -37 45 -155 75 -262 41 -141 62 -200
77 -212 18 -15 43 -18 171 -18 145 0 150 1 173 25 l25 24 0 256 c0 229 2 255
16 255 77 0 189 88 212 166 9 30 12 189 12 593 0 459 2 551 14 551 36 0 161
76 219 133 186 185 219 476 78 696 -91 140 -292 261 -437 261 l-31 0 -6 208
c-4 131 -12 232 -21 275 -55 239 -162 434 -330 603 -165 164 -353 269 -586
327 -82 20 -111 21 -865 23 -429 1 -787 1 -795 -1z m1565 -170 c441 -72 788
-419 860 -860 20 -122 21 -435 1 -435 -7 0 -46 -16 -85 -36 -101 -51 -189
-141 -240 -247 -50 -104 -61 -166 -61 -346 l0 -146 -1279 0 -1279 0 -4 180
c-4 161 -7 187 -30 246 -36 96 -72 154 -139 220 -55 54 -181 129 -215 129 -20
0 -19 313 1 435 71 438 417 787 853 860 119 20 1494 20 1617 0z m-2481 -1463
c91 -42 149 -100 194 -190 l37 -76 5 -549 5 -549 24 -19 c23 -18 60 -19 1411
-19 1351 0 1388 1 1411 19 l24 19 5 549 5 548 32 67 c44 93 100 151 191 196
72 35 81 37 172 37 91 0 100 -2 172 -37 91 -45 147 -103 191 -196 29 -61 32
-76 32 -162 0 -86 -3 -101 -32 -162 -42 -90 -100 -150 -186 -193 -38 -19 -78
-35 -88 -35 -31 0 -66 -21 -78 -47 -8 -17 -11 -202 -11 -609 l0 -585 -25 -24
-24 -25 -1791 0 -1791 0 -24 25 -25 24 0 585 c0 414 -3 592 -11 610 -12 25
-38 39 -94 52 -101 23 -200 106 -252 212 -36 72 -38 81 -38 171 0 87 3 102 32
163 40 85 97 147 172 186 78 42 122 52 213 48 61 -3 92 -11 142 -34z m2931
-787 c25 -24 25 -24 25 -240 l0 -215 -1280 0 -1280 0 0 215 c0 216 0 216 25
240 l24 25 1231 0 1231 0 24 -25z m-2645 -1423 c0 -7 -45 -169 -91 -324 l-20
-68 -49 0 -50 0 0 200 0 200 105 0 c58 0 105 -4 105 -8z m2990 -192 l0 -200
-50 0 -49 0 -20 68 c-46 155 -91 317 -91 324 0 4 47 8 105 8 l105 0 0 -200z"/>
</g>
</svg>
