<svg xmlns="http://www.w3.org/2000/svg" width="30.132" height="28.249" viewBox="0 0 30.132 28.249">
  <g id="box" transform="translate(0 496)">
    <path id="Path_193" data-name="Path 193" d="M5.826-494.2C.518-492.434.436-492.4.218-492.175A.606.606,0,0,0,0-491.6v.347l1.66,2.436c.906,1.342,1.654,2.478,1.654,2.525s-.742,1.183-1.654,2.525L0-481.328v.33a.837.837,0,0,0,.33.742c.059.047,2.554.895,5.538,1.883,4.049,1.342,5.491,1.795,5.7,1.795a.666.666,0,0,0,.477-.153,23.791,23.791,0,0,0,1.589-2.236c.765-1.148,1.407-2.083,1.43-2.083s.665.936,1.43,2.083a23.791,23.791,0,0,0,1.589,2.236.666.666,0,0,0,.477.153c.212,0,1.654-.453,5.7-1.795,2.984-.989,5.479-1.836,5.538-1.883a.837.837,0,0,0,.33-.742v-.33l-1.66-2.436c-.912-1.342-1.654-2.478-1.654-2.525s.747-1.183,1.654-2.525l1.66-2.436v-.347a.606.606,0,0,0-.218-.577c-.224-.235-.294-.259-5.65-2.03-4.049-1.342-5.491-1.795-5.7-1.795a.666.666,0,0,0-.477.153,23.788,23.788,0,0,0-1.589,2.236c-.765,1.148-1.407,2.083-1.43,2.083s-.665-.936-1.43-2.083a23.788,23.788,0,0,0-1.589-2.236C11.665-496.141,11.717-496.153,5.826-494.2ZM18.9-487.572c2.066.689,3.755,1.265,3.755,1.283s-1.707.6-3.8,1.295l-3.8,1.265-3.8-1.265c-2.089-.694-3.8-1.277-3.8-1.295,0-.041,7.415-2.519,7.563-2.525C15.1-488.82,16.844-488.255,18.9-487.572Z" transform="translate(0)"/>
    <path id="Path_194" data-name="Path 194" d="M71.7-188.894c-.818,1.218-1.1,1.524-1.683,1.795a1.917,1.917,0,0,1-.959.206l-.565.024-3.672-1.218c-2.019-.671-3.708-1.236-3.749-1.254A14.645,14.645,0,0,0,61-186.592v2.772l.212.23c.206.23.259.253,5.6,2.03,3.878,1.295,5.473,1.8,5.662,1.8s1.783-.506,5.662-1.8c5.344-1.777,5.4-1.8,5.6-2.03l.212-.23v-2.772a14.648,14.648,0,0,0-.071-2.748c-.041.018-1.73.583-3.749,1.254l-3.672,1.218-.571-.024a1.841,1.841,0,0,1-.971-.218,3.262,3.262,0,0,1-.665-.441,12.118,12.118,0,0,1-1-1.342C72.847-189.5,72.5-190,72.476-190S72.105-189.5,71.7-188.894Z" transform="translate(-57.41 -287.991)"/>
  </g>
</svg>
