<svg xmlns="http://www.w3.org/2000/svg" width="17.497" height="17.503" viewBox="0 0 17.497 17.503">
  <g id="share" transform="translate(-0.5 511.682)">
    <path id="Path_732" data-name="Path 732" d="M135.578-511.624a.655.655,0,0,0-.205.2c-.079.13-.079.137-.089,1.386l-.01,1.252-.4.024a7.146,7.146,0,0,0-2.983.773,7.112,7.112,0,0,0-3.866,5.672,11.213,11.213,0,0,0,.014,1.964.546.546,0,0,0,.838.209,1.61,1.61,0,0,0,.246-.349,6.045,6.045,0,0,1,4.119-3.052,5.566,5.566,0,0,1,1.187-.092l.845-.017.01,1.259c.01,1.256.01,1.262.092,1.392a.55.55,0,0,0,.739.181c.157-.1,4.916-5.067,4.964-5.176a.526.526,0,0,0,0-.431c-.048-.113-4.807-5.073-4.967-5.176A.586.586,0,0,0,135.578-511.624Z" transform="translate(-123.128 0)" fill="#a3a4a5"/>
    <path id="Path_733" data-name="Path 733" d="M2.33-426.595a2.242,2.242,0,0,0-1.752,1.536L.5-424.8v10.982l.075.239a2.245,2.245,0,0,0,.558.907,2.212,2.212,0,0,0,.862.541l.25.092,6.883.01c7.7.01,7.143.027,7.67-.24a2.319,2.319,0,0,0,1.108-1.293l.075-.222.01-3.165c.007-2.432,0-3.2-.031-3.318a.748.748,0,0,0-.783-.5.776.776,0,0,0-.537.359l-.1.161-.017,3.151-.017,3.151-.092.133a1.038,1.038,0,0,1-.222.219l-.127.086H2.409l-.133-.092a1.037,1.037,0,0,1-.219-.222l-.086-.127-.01-5.33c-.007-5.2-.007-5.333.058-5.46a.779.779,0,0,1,.387-.363,5.4,5.4,0,0,1,1.362-.055,5.4,5.4,0,0,0,1.362-.055.728.728,0,0,0,.452-.664.7.7,0,0,0-.393-.66c-.133-.072-.178-.075-1.386-.079C3.114-426.622,2.453-426.612,2.33-426.595Z" transform="translate(0 -82.153)" fill="#a3a4a5"/>
  </g>
</svg>
