<?xml version="1.0" standalone="no"?>
<!DOCTYPE svg PUBLIC "-//W3C//DTD SVG 20010904//EN"
 "http://www.w3.org/TR/2001/REC-SVG-20010904/DTD/svg10.dtd">
<svg version="1.0" xmlns="http://www.w3.org/2000/svg"
 width="512.000000pt" height="512.000000pt" viewBox="0 0 512.000000 512.000000"
 preserveAspectRatio="xMidYMid meet">

<g transform="translate(0.000000,512.000000) scale(0.100000,-0.100000)"
fill="#000000" stroke="none">
<path d="M2397 5104 c-390 -70 -696 -357 -799 -749 -19 -73 -22 -114 -25 -452
l-4 -371 -67 -12 c-260 -48 -507 -183 -707 -384 -247 -249 -380 -545 -402
-891 -8 -145 19 -210 108 -255 37 -20 67 -20 1269 -20 1202 0 1232 0 1269 20
89 45 116 110 108 255 -21 344 -156 643 -402 891 -200 201 -457 341 -710 385
l-65 11 0 327 c0 294 2 336 20 405 29 113 73 190 160 276 86 87 163 131 276
160 73 19 113 20 719 20 606 0 646 -1 719 -20 201 -51 364 -200 429 -389 l22
-66 5 -2050 c5 -1886 6 -2052 22 -2080 83 -150 283 -152 359 -3 19 37 19 85
17 2110 l-3 2073 -23 80 c-113 387 -422 668 -805 730 -130 21 -1372 20 -1490
-1z m-512 -1965 c368 -45 684 -297 807 -644 14 -38 28 -82 32 -97 l6 -28 -960
0 -960 0 6 28 c4 15 18 59 32 97 134 379 497 641 907 654 22 0 81 -4 130 -10z"/>
<path d="M915 1666 c-57 -21 -111 -85 -124 -147 -13 -59 -14 -315 -2 -378 10
-50 32 -82 84 -124 67 -54 172 -47 244 16 59 52 63 73 63 299 0 192 -2 205
-23 243 -47 83 -153 123 -242 91z"/>
<path d="M1684 1655 c-102 -51 -117 -96 -112 -352 l3 -191 30 -44 c81 -116
249 -116 330 0 l30 44 3 202 3 202 -28 54 c-23 44 -39 59 -82 82 -66 35 -112
35 -177 3z"/>
<path d="M2486 1665 c-44 -15 -90 -56 -114 -100 -14 -25 -17 -63 -17 -236 l0
-206 30 -48 c83 -134 273 -125 346 17 17 33 19 60 19 235 0 223 -9 259 -71
305 -64 48 -124 58 -193 33z"/>
<path d="M892 675 c-39 -20 -59 -39 -80 -73 l-27 -47 0 -205 0 -205 27 -47
c38 -63 115 -103 189 -96 65 7 127 49 157 108 21 41 22 57 22 240 0 183 -1
199 -22 240 -51 99 -165 136 -266 85z"/>
<path d="M1685 681 c-48 -22 -79 -54 -100 -103 -22 -54 -22 -402 0 -456 21
-49 52 -81 100 -103 109 -50 241 13 275 132 13 44 13 354 0 398 -16 56 -52
100 -104 126 -59 30 -115 32 -171 6z"/>
<path d="M2482 689 c-45 -14 -105 -76 -120 -125 -16 -55 -16 -373 0 -428 37
-122 199 -174 306 -96 73 52 82 88 82 312 0 185 -1 197 -23 239 -45 84 -151
127 -245 98z"/>
</g>
</svg>
