<svg xmlns="http://www.w3.org/2000/svg" width="94.747" height="102.992" viewBox="0 0 94.747 102.992">
  <g id="Group_7" data-name="Group 7" transform="translate(0 0)">
    <path id="Path_40" data-name="Path 40" d="M393.3-483.676a10.652,10.652,0,0,0-4.562,2.733,11.2,11.2,0,0,0-1.626,2.394l-.61,1.287v4.969l.723,1.491.745,1.491,1.129,1.062a12.21,12.21,0,0,0,2.665,1.784l1.513.723h4.291l1.513-.723a12.21,12.21,0,0,0,2.665-1.784l1.129-1.062.745-1.491.723-1.491v-4.969l-.745-1.513-.723-1.491-1.22-1.129a8.995,8.995,0,0,0-6.347-2.507A13.323,13.323,0,0,0,393.3-483.676Zm4.472,2.688,1.22.474.949.9a8.98,8.98,0,0,1,1.513,2.146l.542,1.22v2.936l-.542,1.22a7.07,7.07,0,0,1-3.3,3.388l-1.039.474h-3.388l-1.039-.474a7.071,7.071,0,0,1-3.3-3.388l-.542-1.22v-3l.7-1.423.7-1.423.9-.723a7.3,7.3,0,0,1,4.2-1.558h1.174Z" transform="translate(-309.595 483.902)"/>
    <path id="Path_41" data-name="Path 41" d="M156.587-478.526l-.587.452v1.762l.587.452a2.191,2.191,0,0,0,1.107.474,2.191,2.191,0,0,0,1.107-.474l.587-.452v-1.762l-.587-.452a2.191,2.191,0,0,0-1.107-.474A2.191,2.191,0,0,0,156.587-478.526Z" transform="translate(-131.156 480.107)"/>
    <path id="Path_42" data-name="Path 42" d="M341.587-463.526l-.587.452v1.762l.587.452a2.191,2.191,0,0,0,1.107.474,2.191,2.191,0,0,0,1.107-.474l.587-.452v-1.762l-.587-.452a2.191,2.191,0,0,0-1.107-.474A2.191,2.191,0,0,0,341.587-463.526Z" transform="translate(-274.372 468.495)"/>
    <path id="Path_43" data-name="Path 43" d="M64.772-448.684a6.73,6.73,0,0,0-1.6.9A5.269,5.269,0,0,0,61-443.15v1.265l.542,1.129a5.407,5.407,0,0,0,4.54,3.207l1.174.135,1.107-.384a6.768,6.768,0,0,0,1.988-1.084l.881-.723.519-1.129.542-1.152v-2.71l-.542-1.129a5.328,5.328,0,0,0-4.766-3.185L65.63-449Zm3.456,2.665a6.192,6.192,0,0,1,1.174,1.107l.452.587v2.168l-.452.587a5.486,5.486,0,0,1-1.174,1.084l-.745.519H65.811l-.745-.519a5.486,5.486,0,0,1-1.174-1.084l-.452-.587v-2.168l.452-.587a6.192,6.192,0,0,1,1.174-1.107l.745-.5h1.671Z" transform="translate(-57.612 456.883)"/>
    <path id="Path_44" data-name="Path 44" d="M256.587-443.526l-.587.452v1.762l.587.452a2.191,2.191,0,0,0,1.107.474,2.191,2.191,0,0,0,1.107-.474l.587-.452v-1.762l-.587-.452a2.191,2.191,0,0,0-1.107-.474A2.191,2.191,0,0,0,256.587-443.526Z" transform="translate(-208.57 453.012)"/>
    <path id="Path_45" data-name="Path 45" d="M71.59-403.606a7.3,7.3,0,0,0-4.833,4.427l-.429,1.129v8.786l-.836-.5-.858-.5H49.953l-1.062.61a5.949,5.949,0,0,0-2.643,3.094L46-385.7v62.314l.632,1.242.61,1.22.971.723a6.47,6.47,0,0,0,1.807.971l.836.226h12.9l1.084-.361,1.084-.384.994-.949.994-.926.5.519a9.562,9.562,0,0,0,1.965,1.265l1.491.723h42.01l1.491-.723a9.448,9.448,0,0,0,1.988-1.287l.519-.565.565.678a7.709,7.709,0,0,0,1.626,1.287l1.039.61,6.843.068,6.866.068,1.062-.361a6.69,6.69,0,0,0,1.92-1.062l.881-.723.519-1.129.542-1.152v-62.585l-.61-1.242-.632-1.22-.971-.723a6.776,6.776,0,0,0-1.875-.971l-.9-.248-6.821.068-6.821.068-.836.5-.858.5v-8.786l-.429-1.129a9.4,9.4,0,0,0-1.265-2.146l-.813-.994-1.513-.745-1.513-.745L93.2-403.855,72.538-403.9Zm3.772,15.494v13.326l.565.271.565.248.565-.248.565-.271v-26.651h29.362v16.488l.565.271.565.248.565-.248.565-.271v-16.488H111a11.635,11.635,0,0,1,2.53.226,5.74,5.74,0,0,1,3,2.552l.5.949.068,34.15.045,34.172H68.586l.045-34.172.068-34.15.5-.949a5.838,5.838,0,0,1,2.891-2.53,8.762,8.762,0,0,1,1.988-.226l1.287-.023Zm-10.841.723a6.651,6.651,0,0,1,1.22,1.152l.474.632.068,25.3.045,25.273H48.259l.045-25.273.068-25.3.474-.632a6.651,6.651,0,0,1,1.22-1.152l.745-.5H63.775Zm71.145,0a6.65,6.65,0,0,1,1.22,1.152l.474.632.068,25.3.045,25.273H119.4l.045-25.273.068-25.3.474-.632a6.651,6.651,0,0,1,1.22-1.152l.745-.5H134.92ZM66.282-328.17l-.068,4.4-.474.632A5.884,5.884,0,0,1,64.52-322l-.745.519H50.811l-.745-.5a6.65,6.65,0,0,1-1.22-1.152l-.474-.632-.068-4.4-.09-4.382H66.372Zm71.145,0-.068,4.4-.474.632a5.883,5.883,0,0,1-1.22,1.129l-.745.519H121.956l-.745-.5a6.65,6.65,0,0,1-1.22-1.152l-.474-.632-.068-4.4-.09-4.382h18.159Zm-20.418,2.213a8.014,8.014,0,0,1-.565,1.807,5.588,5.588,0,0,1-2.914,2.439l-.79.226H72.99l-.791-.226a5.588,5.588,0,0,1-2.914-2.439,8.014,8.014,0,0,1-.565-1.807l-.136-.949h48.559Z" transform="translate(-46 421.969)"/>
    <path id="Path_46" data-name="Path 46" d="M212.153-365.639a10.509,10.509,0,0,0-4.811,2.846l-1.287,1.287-.791,1.649-.813,1.671-.226,1.649L204-354.888l.226,1.4a10.391,10.391,0,0,0,3.546,6.685,10.214,10.214,0,0,0,4.856,2.6,10.2,10.2,0,0,0,5.15-.023l1.536-.339,1.333-.79a11.7,11.7,0,0,0,4.924-5.714,16.7,16.7,0,0,0,.565-2.417l.226-1.4-.226-1.649-.226-1.649-.813-1.649-.79-1.671-1.2-1.2a11.438,11.438,0,0,0-4.991-2.959L216.784-366l-1.717.023A13.767,13.767,0,0,0,212.153-365.639Zm6.572,2.846a10.506,10.506,0,0,1,2.3,1.536l1.039.949.768,1.536.768,1.536.158,1.355.158,1.355-.361,1.378a8.284,8.284,0,0,1-2.3,4.246l-1.016,1.016-1.513.7-1.513.723h-4.065l-1.513-.723-1.513-.7L209.1-348.9a8.284,8.284,0,0,1-2.3-4.246l-.361-1.378.158-1.31.158-1.333.632-1.333a9.212,9.212,0,0,1,2.778-3.478A11.583,11.583,0,0,1,212.108-363l1.265-.519,2.033.045,2.033.068Z" transform="translate(-168.314 392.629)"/>
    <path id="Path_47" data-name="Path 47" d="M232.233-340.639a6.331,6.331,0,0,0-2.71,2.575,7.134,7.134,0,0,0-.565,1.739l-.158.949.361,1.2a5.734,5.734,0,0,0,2.688,3.388l.949.5,1.581.023h1.581l1.016-.565a7.255,7.255,0,0,0,1.717-1.513l.723-.949.248-1.174.248-1.174-.136-.813a5.9,5.9,0,0,0-3.3-4.178l-.836-.361h-1.31A7.34,7.34,0,0,0,232.233-340.639Zm3.591,2.439a2.916,2.916,0,0,1,1.491,2.191l.136.768-.407.79a3.99,3.99,0,0,1-1.174,1.287l-.768.519h-1.445l-.768-.519a3.99,3.99,0,0,1-1.174-1.287l-.407-.79.136-.768a2.827,2.827,0,0,1,2.891-2.507A4.259,4.259,0,0,1,235.824-338.2Z" transform="translate(-187.513 373.276)"/>
    <path id="Path_48" data-name="Path 48" d="M192.048-238.626a21.234,21.234,0,0,0-2.868.768l-1.626.565-.994-.542a7.767,7.767,0,0,0-1.942-.7l-.949-.158-1.22.361-1.22.361-.949.926-.926.949-.361,1.2-.339,1.22.136.994a5.756,5.756,0,0,0,.678,1.829l.5.858-.61,1.378a19.512,19.512,0,0,0-.994,3L178-223.99v4.472l.452,1.762a21.93,21.93,0,0,0,.971,2.914l.519,1.129-.565,1.016-.565,1.016v1.355l.023,1.378.452.9a5.261,5.261,0,0,0,2.6,2.462l.836.361h2.62l1.129-.655,1.107-.632,1.039.429a19.088,19.088,0,0,0,2.484.79l1.468.361,2.372-.023h2.372l1.468-.384c.813-.2,2.1-.632,2.868-.926l1.378-.565,1.062.745,1.062.745h3.7l.949-.632a6.293,6.293,0,0,0,1.558-1.536l.587-.9.113-1.22a4.85,4.85,0,0,0-.971-3.84l-.79-1.016.7-2.078.7-2.1.136-2.259.113-2.281-.384-1.875a20.708,20.708,0,0,0-.836-2.981l-.429-1.129.542-.723a12.658,12.658,0,0,0,.9-1.445l.361-.723v-1.265a4.986,4.986,0,0,0-2.823-4.7l-.9-.474h-2.71l-.79.407a7.387,7.387,0,0,0-1.242.836l-.452.407-2.055-.768a19.636,19.636,0,0,0-3.5-.994A18.479,18.479,0,0,0,192.048-238.626Zm5.895,2.575a17.791,17.791,0,0,1,3.433,1.242c1.062.5,1.965.9,2.01.9a11.777,11.777,0,0,0,1.287-1.016l1.2-1.016.723-.136.723-.135.813.384.836.407.316.632a3.968,3.968,0,0,1,.339,1.558v.926l-1.016,1.084-1.016,1.084v.61a3.96,3.96,0,0,0,.474,1.513,18.1,18.1,0,0,1,.9,2.62l.429,1.717v1.829a14.084,14.084,0,0,1-1.242,5.895,6.724,6.724,0,0,0-.565,1.829v.519l1.016,1.152,1.016,1.152v2.055l-.768.768-.768.768h-2.055l-1.152-1.016a4.5,4.5,0,0,0-1.491-1.016,8.95,8.95,0,0,0-1.875.768,19.852,19.852,0,0,1-2.981,1.174l-1.445.384-2.146.023h-2.146l-1.445-.384a16.744,16.744,0,0,1-2.552-.949,5.155,5.155,0,0,0-1.581-.565,3.078,3.078,0,0,0-1.333.791l-.881.79H183.15l-.655-.384a2.983,2.983,0,0,1-1.016-1.152l-.361-.768.136-.723a5.1,5.1,0,0,1,.813-1.536,2.877,2.877,0,0,0,.678-1.2,9.538,9.538,0,0,0-.79-1.92,17.616,17.616,0,0,1-1.129-2.981l-.339-1.423v-4.224l.361-1.4a17.425,17.425,0,0,1,1.129-2.959,8.954,8.954,0,0,0,.768-1.942,3.386,3.386,0,0,0-.678-1.22,4.717,4.717,0,0,1-.813-1.4l-.136-.542.294-.813a2.776,2.776,0,0,1,2.236-1.784l.79-.135.79.587a16.612,16.612,0,0,0,1.423.926l.61.361,1.6-.723a18.645,18.645,0,0,1,3-.994A15.284,15.284,0,0,1,197.943-236.051Z" transform="translate(-148.187 294.188)"/>
    <path id="Path_49" data-name="Path 49" d="M212.921-212.623a11.971,11.971,0,0,0-6.889,4.585,11.982,11.982,0,0,0-1.807,4.72L204-201.872l.226,1.671.226,1.649.768,1.581a14.884,14.884,0,0,0,1.6,2.53,12.184,12.184,0,0,0,5.014,3.23l1.468.452h3.749l1.468-.452a12.183,12.183,0,0,0,5.014-3.23,14.884,14.884,0,0,0,1.6-2.53l.768-1.581.226-1.649.226-1.671-.226-1.445a10.778,10.778,0,0,0-3.636-6.731,11.781,11.781,0,0,0-5.262-2.6A10.289,10.289,0,0,0,212.921-212.623Zm5.827,3.072,1.4.655,1.062,1.039a9.433,9.433,0,0,1,2.462,4.72l.248,1.265-.248,1.423a8.5,8.5,0,0,1-2.507,4.811,8.586,8.586,0,0,1-7.318,2.349l-1.31-.181-1.355-.723-1.333-.7L208.856-196a8.42,8.42,0,0,1-2.168-4.472l-.248-1.4.248-1.265a11.717,11.717,0,0,1,.836-2.462,9.219,9.219,0,0,1,5.669-4.585,10.379,10.379,0,0,1,2.507-.113l1.649.09Z" transform="translate(-168.314 274.079)"/>
    <path id="Path_50" data-name="Path 50" d="M233.3-187.545a5.479,5.479,0,0,0-3.185,2.755l-.519,1.062v1.378l.023,1.355.452.9a5.748,5.748,0,0,0,2.665,2.62l.9.429h2.71l.9-.429a5.748,5.748,0,0,0,2.665-2.62l.452-.9.023-1.355v-1.378l-.52-1.062a5.254,5.254,0,0,0-3.275-2.755A4.61,4.61,0,0,0,233.3-187.545Zm3.185,2.665a3.918,3.918,0,0,1,1.174,1.333l.407.836-.158.858-.158.858-.745.7a2.86,2.86,0,0,1-2.62.813l-.632-.068-.768-.745-.768-.723-.158-.813-.158-.836.407-.858a4.086,4.086,0,0,1,1.2-1.355l.768-.519h1.445Z" transform="translate(-188.133 254.716)"/>
    <path id="Path_51" data-name="Path 51" d="M70.652-318.671a6.818,6.818,0,0,0-4.246,4.088,9.008,9.008,0,0,0,.023,4.833,7.137,7.137,0,0,0,1.242,2.055l.9,1.016,1.287.632,1.287.632h3.388l1.287-.632,1.287-.632.9-1.016a7.137,7.137,0,0,0,1.242-2.055,8.951,8.951,0,0,0,0-4.879,7.137,7.137,0,0,0-1.242-2.055l-.9-1.016-1.22-.61L74.65-318.9l-1.4-.09-1.423-.113Zm4.133,2.643,1.107.542.632.971a4.217,4.217,0,0,1,.632,1.649,5.259,5.259,0,0,1-.361,2.6,5.075,5.075,0,0,1-4.02,2.484,5.348,5.348,0,0,1-1.875-.565l-1.107-.542-.632-.971a4.217,4.217,0,0,1-.632-1.649c-.068-1.965.2-2.733,1.4-3.907a3.9,3.9,0,0,1,2.936-1.152l.79-.023Z" transform="translate(-61.55 356.322)"/>
    <path id="Path_52" data-name="Path 52" d="M87.084-298.639c-.813.429-1.084.971-1.084,2.123v.926l.542.542a2.442,2.442,0,0,0,2.3.7,3.214,3.214,0,0,0,1.129-.7l.542-.542v-.926a4.139,4.139,0,0,0-.226-1.378A2.962,2.962,0,0,0,88.213-299,2.978,2.978,0,0,0,87.084-298.639Z" transform="translate(-76.966 340.762)"/>
    <path id="Path_53" data-name="Path 53" d="M70.652-243.671a6.818,6.818,0,0,0-4.246,4.088,9.008,9.008,0,0,0,.023,4.833,7.137,7.137,0,0,0,1.242,2.055l.9,1.016,1.287.632,1.287.632h3.388l1.287-.632,1.287-.632.9-1.016a7.137,7.137,0,0,0,1.242-2.055,8.951,8.951,0,0,0,0-4.879,7.137,7.137,0,0,0-1.242-2.055l-.9-1.016-1.22-.61L74.65-243.9l-1.4-.09-1.423-.113Zm4.133,2.643,1.107.542.632.971a4.217,4.217,0,0,1,.632,1.649,5.26,5.26,0,0,1-.361,2.6,5.075,5.075,0,0,1-4.02,2.484,5.348,5.348,0,0,1-1.875-.565l-1.107-.542-.632-.971a4.217,4.217,0,0,1-.632-1.649c-.068-1.965.2-2.733,1.4-3.907a3.9,3.9,0,0,1,2.936-1.152l.79-.023Z" transform="translate(-61.55 298.261)"/>
    <path id="Path_54" data-name="Path 54" d="M87.084-223.639c-.813.429-1.084.971-1.084,2.123v.926l.542.542a2.443,2.443,0,0,0,2.3.7,3.214,3.214,0,0,0,1.129-.7l.542-.542v-.926a4.139,4.139,0,0,0-.226-1.378A2.962,2.962,0,0,0,88.213-224,2.979,2.979,0,0,0,87.084-223.639Z" transform="translate(-76.966 282.701)"/>
    <path id="Path_55" data-name="Path 55" d="M70.652-168.671a6.818,6.818,0,0,0-4.246,4.088,9.008,9.008,0,0,0,.023,4.833,7.137,7.137,0,0,0,1.242,2.055l.9,1.016,1.287.632,1.287.632h3.388l1.287-.632,1.287-.632.9-1.016a7.137,7.137,0,0,0,1.242-2.055,8.951,8.951,0,0,0,0-4.879,7.137,7.137,0,0,0-1.242-2.055l-.9-1.016-1.22-.61L74.65-168.9l-1.4-.09-1.423-.113Zm4.133,2.643,1.107.542.632.971a4.217,4.217,0,0,1,.632,1.649,5.259,5.259,0,0,1-.361,2.6,5.075,5.075,0,0,1-4.02,2.484,5.348,5.348,0,0,1-1.875-.565l-1.107-.542-.632-.971a4.217,4.217,0,0,1-.632-1.649c-.068-1.965.2-2.733,1.4-3.907a3.9,3.9,0,0,1,2.936-1.152l.79-.023Z" transform="translate(-61.55 240.201)"/>
    <path id="Path_56" data-name="Path 56" d="M87.084-148.639c-.813.429-1.084.971-1.084,2.123v.926l.542.542a2.442,2.442,0,0,0,2.3.7,3.214,3.214,0,0,0,1.129-.7l.542-.542v-.926a4.139,4.139,0,0,0-.226-1.378A2.962,2.962,0,0,0,88.213-149,2.979,2.979,0,0,0,87.084-148.639Z" transform="translate(-76.966 224.64)"/>
    <path id="Path_57" data-name="Path 57" d="M385.652-318.671a6.818,6.818,0,0,0-4.246,4.088,9.008,9.008,0,0,0,.023,4.833,7.137,7.137,0,0,0,1.242,2.055l.9,1.016,1.287.632,1.287.632h3.388l1.287-.632,1.287-.632.9-1.016a7.136,7.136,0,0,0,1.242-2.055,8.93,8.93,0,0,0,.361-2.439,8.93,8.93,0,0,0-.361-2.439,7.136,7.136,0,0,0-1.242-2.055l-.9-1.016-1.22-.61-1.242-.587-1.4-.09-1.423-.113Zm4.133,2.643,1.107.542.632.971a4.217,4.217,0,0,1,.632,1.649,5.259,5.259,0,0,1-.361,2.6,5.075,5.075,0,0,1-4.02,2.484,5.348,5.348,0,0,1-1.875-.565l-1.107-.542-.632-.971a4.218,4.218,0,0,1-.632-1.649c-.068-1.965.2-2.733,1.4-3.907a3.9,3.9,0,0,1,2.936-1.152l.79-.023Z" transform="translate(-305.405 356.322)"/>
    <path id="Path_58" data-name="Path 58" d="M402.084-298.639c-.813.429-1.084.971-1.084,2.123v.926l.542.542a3.214,3.214,0,0,0,1.129.7,2.442,2.442,0,0,0,2.3-.7l.542-.542v-.926a4.14,4.14,0,0,0-.226-1.378A2.962,2.962,0,0,0,403.213-299,2.978,2.978,0,0,0,402.084-298.639Z" transform="translate(-320.82 340.762)"/>
    <path id="Path_59" data-name="Path 59" d="M385.652-243.671a6.818,6.818,0,0,0-4.246,4.088,9.008,9.008,0,0,0,.023,4.833,7.137,7.137,0,0,0,1.242,2.055l.9,1.016,1.287.632,1.287.632h3.388l1.287-.632,1.287-.632.9-1.016a7.136,7.136,0,0,0,1.242-2.055,8.93,8.93,0,0,0,.361-2.439,8.93,8.93,0,0,0-.361-2.439,7.136,7.136,0,0,0-1.242-2.055l-.9-1.016-1.22-.61-1.242-.587-1.4-.09-1.423-.113Zm4.133,2.643,1.107.542.632.971a4.217,4.217,0,0,1,.632,1.649,5.259,5.259,0,0,1-.361,2.6,5.075,5.075,0,0,1-4.02,2.484,5.348,5.348,0,0,1-1.875-.565l-1.107-.542-.632-.971a4.218,4.218,0,0,1-.632-1.649c-.068-1.965.2-2.733,1.4-3.907a3.9,3.9,0,0,1,2.936-1.152l.79-.023Z" transform="translate(-305.405 298.261)"/>
    <path id="Path_60" data-name="Path 60" d="M402.084-223.639c-.813.429-1.084.971-1.084,2.123v.926l.542.542a2.443,2.443,0,0,0,2.3.7,3.213,3.213,0,0,0,1.129-.7l.542-.542v-.926a4.14,4.14,0,0,0-.226-1.378A2.962,2.962,0,0,0,403.213-224,2.979,2.979,0,0,0,402.084-223.639Z" transform="translate(-320.82 282.701)"/>
    <path id="Path_61" data-name="Path 61" d="M385.652-168.671a6.818,6.818,0,0,0-4.246,4.088,9.008,9.008,0,0,0,.023,4.833,7.137,7.137,0,0,0,1.242,2.055l.9,1.016,1.287.632,1.287.632h3.388l1.287-.632,1.287-.632.9-1.016a7.136,7.136,0,0,0,1.242-2.055,8.93,8.93,0,0,0,.361-2.439,8.93,8.93,0,0,0-.361-2.439,7.136,7.136,0,0,0-1.242-2.055l-.9-1.016-1.22-.61-1.242-.587-1.4-.09-1.423-.113Zm4.133,2.643,1.107.542.632.971a4.217,4.217,0,0,1,.632,1.649,5.259,5.259,0,0,1-.361,2.6,5.075,5.075,0,0,1-4.02,2.484,5.348,5.348,0,0,1-1.875-.565l-1.107-.542-.632-.971a4.218,4.218,0,0,1-.632-1.649c-.068-1.965.2-2.733,1.4-3.907a3.9,3.9,0,0,1,2.936-1.152l.79-.023Z" transform="translate(-305.405 240.201)"/>
    <path id="Path_62" data-name="Path 62" d="M402.084-148.639c-.813.429-1.084.971-1.084,2.123v.926l.542.542a3.214,3.214,0,0,0,1.129.7,2.442,2.442,0,0,0,2.3-.7l.542-.542v-.926a4.14,4.14,0,0,0-.226-1.378A2.962,2.962,0,0,0,403.213-149,2.978,2.978,0,0,0,402.084-148.639Z" transform="translate(-320.82 224.64)"/>
    <path id="Path_63" data-name="Path 63" d="M56.587-383.526l-.587.452v1.762l.587.452a2.191,2.191,0,0,0,1.107.474,2.191,2.191,0,0,0,1.107-.474l.587-.452v-1.762l-.587-.452A2.191,2.191,0,0,0,57.694-384,2.191,2.191,0,0,0,56.587-383.526Z" transform="translate(-53.741 406.564)"/>
    <path id="Path_64" data-name="Path 64" d="M446.587-383.526l-.587.452v1.762l.587.452a2.191,2.191,0,0,0,1.107.474,2.191,2.191,0,0,0,1.107-.474l.587-.452v-1.762l-.587-.452a2.191,2.191,0,0,0-1.107-.474A2.191,2.191,0,0,0,446.587-383.526Z" transform="translate(-355.657 406.564)"/>
  </g>
</svg>
