<?xml version="1.0" standalone="no"?>
<!DOCTYPE svg PUBLIC "-//W3C//DTD SVG 20010904//EN"
 "http://www.w3.org/TR/2001/REC-SVG-20010904/DTD/svg10.dtd">
<svg version="1.0" xmlns="http://www.w3.org/2000/svg"
 width="512.000000pt" height="512.000000pt" viewBox="0 0 512.000000 512.000000"
 preserveAspectRatio="xMidYMid meet">

<g transform="translate(0.000000,512.000000) scale(0.100000,-0.100000)"
fill="#000000" stroke="none">
<path d="M255 4946 c-94 -41 -124 -168 -59 -246 46 -54 49 -55 354 -60 l284
-5 278 -1180 c153 -649 279 -1189 280 -1199 3 -16 -7 -21 -58 -32 -225 -46
-389 -266 -371 -499 9 -123 57 -224 148 -313 52 -51 157 -106 231 -121 37 -8
477 -10 1465 -9 1408 3 1412 3 1439 24 53 39 69 71 69 134 0 63 -16 95 -69
134 -27 21 -33 21 -1446 26 -1413 5 -1419 5 -1446 26 -53 39 -69 71 -69 134 0
63 16 95 69 134 27 21 33 21 1459 26 l1432 5 52 22 c125 51 226 140 275 245
36 75 388 1573 388 1649 0 117 -49 238 -133 327 -55 58 -105 91 -190 125 l-52
22 -1675 5 -1674 5 -63 270 c-64 272 -74 300 -127 339 -26 20 -41 21 -394 23
-290 2 -373 0 -397 -11z m4300 -969 c42 -23 85 -91 85 -134 0 -49 -351 -1509
-368 -1532 -10 -14 -31 -34 -46 -45 -27 -21 -31 -21 -1264 -21 l-1237 0 -192
815 c-105 448 -198 843 -206 878 l-15 62 1601 0 1602 0 40 -23z"/>
<path d="M1801 1104 c-253 -68 -410 -331 -346 -579 67 -256 329 -415 580 -350
256 67 415 329 350 578 -67 259 -333 419 -584 351z m182 -318 c103 -43 128
-177 48 -257 -65 -65 -157 -65 -222 0 -124 123 13 325 174 257z"/>
<path d="M3561 1104 c-253 -68 -410 -331 -346 -579 67 -256 329 -415 580 -350
256 67 415 329 350 578 -67 259 -333 419 -584 351z m182 -318 c103 -43 128
-177 48 -257 -65 -65 -157 -65 -222 0 -124 123 13 325 174 257z"/>
</g>
</svg>
