<?xml version="1.0" standalone="no"?>
<!DOCTYPE svg PUBLIC "-//W3C//DTD SVG 20010904//EN"
 "http://www.w3.org/TR/2001/REC-SVG-20010904/DTD/svg10.dtd">
<svg version="1.0" xmlns="http://www.w3.org/2000/svg"
 width="100.000000pt" height="100.000000pt" viewBox="0 0 100.000000 100.000000"
 preserveAspectRatio="xMidYMid meet">
<metadata>
Created by potrace 1.16, written by Peter Selinger 2001-2019
</metadata>
<g transform="translate(0.000000,100.000000) scale(0.100000,-0.100000)"
fill="#000000" stroke="none">
<path d="M426 914 c-21 -21 -26 -36 -26 -74 0 -66 34 -100 100 -100 66 0 100
34 100 100 0 66 -34 100 -100 100 -38 0 -53 -5 -74 -26z"/>
<path d="M66 767 c5 -39 2 -62 -10 -85 -34 -65 -6 -182 44 -182 24 0 27 27 5
56 -19 25 -19 63 0 107 15 37 20 112 9 141 -3 9 -17 16 -30 16 -23 0 -24 -2
-18 -53z"/>
<path d="M186 767 c5 -39 2 -62 -10 -85 -30 -57 -16 -145 29 -182 13 -11 18
-11 32 3 14 14 14 18 -6 45 -25 35 -27 66 -6 115 15 37 20 112 9 141 -3 9 -17
16 -30 16 -23 0 -24 -2 -18 -53z"/>
<path d="M786 767 c5 -39 2 -62 -10 -85 -34 -65 -6 -182 44 -182 24 0 27 27 5
56 -19 25 -19 63 0 107 15 37 20 112 9 141 -3 9 -17 16 -30 16 -23 0 -24 -2
-18 -53z"/>
<path d="M906 767 c5 -39 2 -62 -10 -85 -34 -65 -6 -182 44 -182 24 0 27 27 5
56 -19 25 -19 63 0 107 15 37 20 112 9 141 -3 9 -17 16 -30 16 -23 0 -24 -2
-18 -53z"/>
<path d="M356 701 c-27 -29 -78 -200 -74 -243 2 -21 0 -38 -4 -38 -3 0 -10 -9
-13 -20 -6 -18 -15 -20 -116 -20 -102 0 -109 -1 -109 -20 0 -19 7 -20 110 -20
61 0 110 -3 110 -7 1 -40 42 -249 51 -259 15 -19 83 -18 99 1 9 10 11 49 9
131 l-4 117 43 14 c36 13 48 13 85 0 l42 -14 -4 -117 c-2 -82 0 -121 9 -131
15 -19 84 -20 99 -2 6 8 21 71 33 140 l22 127 108 0 c101 0 108 1 108 20 0 19
-7 20 -108 20 -95 0 -111 2 -126 19 -10 11 -15 25 -11 31 13 22 7 75 -20 160
-41 129 -43 130 -195 130 -112 0 -129 -2 -144 -19z m254 -37 c6 -6 24 -53 40
-105 31 -105 29 -113 -32 -124 -44 -8 -53 10 -13 25 28 11 29 15 14 76 -10 37
-15 44 -36 44 -24 0 -25 -2 -19 -39 6 -37 4 -40 -23 -46 -16 -3 -47 -2 -68 4
-37 10 -39 12 -35 47 4 33 2 35 -19 32 -20 -2 -26 -11 -33 -50 -5 -27 -7 -51
-3 -54 3 -3 36 -13 73 -23 37 -9 69 -22 72 -29 5 -16 -13 -15 -95 3 -98 23
-103 25 -103 42 0 18 47 174 58 189 4 6 14 14 22 17 25 10 188 3 200 -9z"/>
</g>
</svg>
