<svg id="trophy" xmlns="http://www.w3.org/2000/svg" width="18.908" height="17.593" viewBox="0 0 18.908 17.593">
  <g id="Group_96" data-name="Group 96" transform="translate(12.626 2.356)">
    <path id="Path_92" data-name="Path 92" d="M16.668,11.932a.581.581,0,0,1-.576-.443.555.555,0,0,1,.459-.653c2.144-.41,4.418-2.89,4.619-6.731h-2.6a.572.572,0,0,1-.589-.553A.572.572,0,0,1,18.569,3h3.2a.572.572,0,0,1,.589.553c0,4.794-2.8,7.838-5.575,8.368A.651.651,0,0,1,16.668,11.932Z" transform="translate(-16.08 -3)" fill="#a3a4a5"/>
  </g>
  <g id="Group_97" data-name="Group 97" transform="translate(0 2.356)">
    <path id="Path_93" data-name="Path 93" d="M5.623,12.137a.64.64,0,0,1-.13-.014C2.764,11.534,0,8.406,0,3.567A.578.578,0,0,1,.589,3H3.73a.567.567,0,1,1,0,1.134H1.193c.2,3.88,2.443,6.427,4.559,6.883a.568.568,0,0,1,.446.677.586.586,0,0,1-.575.443Z" transform="translate(0 -3)" fill="#a3a4a5"/>
  </g>
  <g id="Group_98" data-name="Group 98" transform="translate(7.852 11.398)">
    <path id="Path_94" data-name="Path 94" d="M12.552,16.11a.589.589,0,0,0-.589.589h-.785A.589.589,0,1,0,10,16.7v2.858a.589.589,0,0,0,.589.589h1.963a.589.589,0,0,0,.589-.589V16.7A.589.589,0,0,0,12.552,16.11Z" transform="translate(-10 -16.11)" fill="#a3a4a5"/>
  </g>
  <g id="Group_99" data-name="Group 99" transform="translate(5.497 14.453)">
    <path id="Path_95" data-name="Path 95" d="M12.693,20H9.159A2.161,2.161,0,0,0,7,22.159v.393a.589.589,0,0,0,.589.589h6.674a.589.589,0,0,0,.589-.589v-.393A2.161,2.161,0,0,0,12.693,20Z" transform="translate(-7 -20)" fill="#a3a4a5"/>
  </g>
  <g id="Group_100" data-name="Group 100" transform="translate(3.141 0)">
    <path id="Path_96" data-name="Path 96" d="M15.189,0H5.374A1.376,1.376,0,0,0,4,1.374v5.7c.034,5.069,5.841,7.142,6.089,7.227a.584.584,0,0,0,.193.033.6.6,0,0,0,.192-.032c.248-.086,6.089-2.159,6.089-7.232V1.374A1.376,1.376,0,0,0,15.189,0Z" transform="translate(-4 0)" fill="#a3a4a5"/>
  </g>
</svg>
