<svg id="trophy" xmlns="http://www.w3.org/2000/svg" width="30.239" height="28.136" viewBox="0 0 30.239 28.136">
  <g id="Group_96" data-name="Group 96" transform="translate(20.192 3.767)">
    <path id="Path_92" data-name="Path 92" d="M17.021,17.285a.929.929,0,0,1-.922-.708.888.888,0,0,1,.735-1.044c3.429-.656,7.065-4.622,7.386-10.764H20.061a.915.915,0,0,1-.942-.885A.915.915,0,0,1,20.061,3h5.123a.915.915,0,0,1,.942.885c0,7.666-4.486,12.535-8.916,13.383A1.042,1.042,0,0,1,17.021,17.285Z" transform="translate(-16.08 -3)"/>
  </g>
  <g id="Group_97" data-name="Group 97" transform="translate(0 3.767)">
    <path id="Path_93" data-name="Path 93" d="M8.992,17.612a1.024,1.024,0,0,1-.207-.022C4.42,16.647,0,11.645,0,3.906A.925.925,0,0,1,.942,3H5.965a.907.907,0,1,1,0,1.813H1.907c.32,6.2,3.907,10.278,7.291,11.008A.908.908,0,0,1,9.912,16.9a.937.937,0,0,1-.919.708Z" transform="translate(0 -3)"/>
  </g>
  <g id="Group_98" data-name="Group 98" transform="translate(12.558 18.228)">
    <path id="Path_94" data-name="Path 94" d="M14.081,16.11a.942.942,0,0,0-.942.942H11.884a.942.942,0,1,0-1.884,0v4.571a.942.942,0,0,0,.942.942h3.139a.942.942,0,0,0,.942-.942V17.052A.942.942,0,0,0,14.081,16.11Z" transform="translate(-10 -16.11)"/>
  </g>
  <g id="Group_99" data-name="Group 99" transform="translate(8.79 23.113)">
    <path id="Path_95" data-name="Path 95" d="M16.1,20H10.453A3.456,3.456,0,0,0,7,23.453v.628a.942.942,0,0,0,.942.942H18.616a.942.942,0,0,0,.942-.942v-.628A3.456,3.456,0,0,0,16.1,20Z" transform="translate(-7 -20)"/>
  </g>
  <g id="Group_100" data-name="Group 100" transform="translate(5.023 0)">
    <path id="Path_96" data-name="Path 96" d="M21.894,0H6.2A2.2,2.2,0,0,0,4,2.2v9.11c.054,8.107,9.342,11.421,9.737,11.558a.934.934,0,0,0,.309.053.953.953,0,0,0,.308-.051c.4-.138,9.738-3.453,9.738-11.565V2.2a2.2,2.2,0,0,0-2.2-2.2Z" transform="translate(-4 0)"/>
  </g>
</svg>
