<?xml version="1.0" standalone="no"?>
<!DOCTYPE svg PUBLIC "-//W3C//DTD SVG 20010904//EN"
 "http://www.w3.org/TR/2001/REC-SVG-20010904/DTD/svg10.dtd">
<svg version="1.0" xmlns="http://www.w3.org/2000/svg"
 width="96.000000pt" height="96.000000pt" viewBox="0 0 96.000000 96.000000"
 preserveAspectRatio="xMidYMid meet">
<metadata>
Created by potrace 1.16, written by Peter Selinger 2001-2019
</metadata>
<g transform="translate(0.000000,96.000000) scale(0.100000,-0.100000)"
fill="#000000" stroke="none">
<path d="M620 881 c-84 -14 -167 -62 -200 -116 -24 -40 -27 -140 -5 -230 19
-80 19 -169 -1 -211 -24 -50 -120 -134 -202 -177 -121 -64 -112 -67 206 -67
l278 0 31 33 c50 51 73 111 73 192 0 79 -15 120 -78 212 -60 88 -72 118 -72
170 0 58 32 120 77 148 36 22 43 45 14 45 -10 0 -31 2 -47 4 -16 2 -49 1 -74
-3z"/>
<path d="M798 783 c-43 -50 -52 -129 -19 -162 11 -11 21 -37 23 -58 3 -36 5
-38 38 -38 33 0 35 2 38 38 2 21 12 47 23 58 27 27 26 96 -4 140 -27 40 -74
51 -99 22z"/>
<path d="M108 549 c-35 -20 -68 -93 -68 -149 0 -49 3 -56 39 -90 28 -27 41
-48 43 -71 3 -32 6 -34 38 -34 32 0 35 2 38 34 2 23 15 44 43 71 36 34 39 41
39 90 0 58 -34 131 -70 150 -24 13 -80 12 -102 -1z"/>
</g>
</svg>
