<?xml version="1.0" standalone="no"?>
<!DOCTYPE svg PUBLIC "-//W3C//DTD SVG 20010904//EN"
 "http://www.w3.org/TR/2001/REC-SVG-20010904/DTD/svg10.dtd">
<svg version="1.0" xmlns="http://www.w3.org/2000/svg"
 width="512.000000pt" height="512.000000pt" viewBox="0 0 512.000000 512.000000"
 preserveAspectRatio="xMidYMid meet">

<g transform="translate(0.000000,512.000000) scale(0.100000,-0.100000)"
fill="#000000" stroke="none">
<path d="M3483 5106 c-174 -40 -330 -179 -395 -351 -19 -51 -23 -79 -23 -185
1 -111 4 -132 28 -193 45 -115 114 -198 222 -269 202 -132 489 -106 663 61
112 107 163 221 170 377 7 155 -35 277 -133 391 -48 56 -155 126 -235 153 -82
28 -212 35 -297 16z"/>
<path d="M1664 4221 c-51 -13 -134 -63 -168 -102 -17 -20 -132 -221 -256 -445
-172 -314 -227 -422 -236 -467 -40 -190 88 -361 292 -393 51 -8 150 17 202 50
66 41 101 94 272 405 l165 301 312 0 311 0 -345 -602 c-190 -332 -404 -705
-475 -830 l-130 -227 -622 -3 -621 -3 -50 -25 c-64 -31 -124 -92 -156 -155
-20 -43 -24 -64 -24 -145 0 -83 4 -101 27 -146 35 -67 115 -138 181 -161 48
-17 102 -18 782 -18 685 0 733 1 783 19 92 31 146 94 282 326 66 113 125 205
130 205 5 0 141 -103 301 -229 205 -162 289 -234 286 -245 -2 -9 -87 -221
-187 -471 -180 -447 -183 -456 -184 -530 -1 -128 60 -228 176 -291 57 -30 71
-33 148 -34 66 0 95 5 131 21 59 27 123 85 154 138 13 23 128 302 256 621 213
530 233 586 237 650 5 88 -23 170 -79 230 -21 22 -186 158 -368 301 -182 142
-330 263 -331 268 0 7 125 224 368 635 l84 143 158 -239 c172 -263 207 -300
308 -329 73 -22 172 -15 232 16 25 12 225 122 445 244 423 234 461 260 506
351 20 43 24 64 24 145 0 80 -4 102 -23 138 -53 100 -154 172 -262 187 -86 12
-148 -13 -438 -174 -149 -83 -274 -151 -279 -151 -4 1 -83 117 -176 259 l-167
258 -83 6 c-299 23 -575 201 -702 453 l-27 54 -567 -1 c-311 -1 -580 -4 -597
-8z"/>
</g>
</svg>
