<?xml version="1.0" standalone="no"?>
<!DOCTYPE svg PUBLIC "-//W3C//DTD SVG 20010904//EN"
 "http://www.w3.org/TR/2001/REC-SVG-20010904/DTD/svg10.dtd">
<svg version="1.0" xmlns="http://www.w3.org/2000/svg"
 width="512.000000pt" height="512.000000pt" viewBox="0 0 512.000000 512.000000"
 preserveAspectRatio="xMidYMid meet">

<g transform="translate(0.000000,512.000000) scale(0.100000,-0.100000)"
fill="#000000" stroke="none">
<path d="M1089 4371 l-24 -19 -3 -974 c-2 -653 0 -985 7 -1009 7 -23 20 -40
36 -47 18 -8 108 -12 280 -12 l255 0 0 -410 c0 -397 1 -411 20 -430 19 -19 33
-20 199 -20 l179 0 -107 -322 c-58 -178 -105 -333 -103 -345 8 -55 -22 -53
869 -53 810 0 823 0 843 20 11 11 20 30 20 43 0 12 -49 170 -110 352 -60 181
-109 329 -107 330 1 1 42 16 92 33 165 59 326 176 431 315 55 73 136 237 158
322 22 83 39 294 35 430 -3 94 -7 117 -23 134 l-19 21 -979 0 -978 0 0 804 c0
798 0 803 -21 830 l-20 26 -454 0 c-431 0 -454 -1 -476 -19z m821 -881 l0
-760 -350 0 -350 0 0 760 0 760 350 0 350 0 0 -760z m2000 -965 l0 -65 -1350
0 -1350 0 0 65 0 65 1350 0 1350 0 0 -65z m-14 -271 c-3 -31 -21 -95 -39 -143
-84 -224 -267 -398 -502 -479 l-80 -27 -747 -3 -748 -3 0 356 0 355 1061 0
1062 0 -7 -56z m-608 -1082 c50 -152 92 -283 92 -290 0 -9 -151 -12 -691 -12
-549 0 -690 3 -687 13 3 6 47 137 97 290 l93 277 501 0 502 0 93 -278z"/>
</g>
</svg>
