<?xml version="1.0" standalone="no"?>
<!DOCTYPE svg PUBLIC "-//W3C//DTD SVG 20010904//EN"
 "http://www.w3.org/TR/2001/REC-SVG-20010904/DTD/svg10.dtd">
<svg version="1.0" xmlns="http://www.w3.org/2000/svg"
 width="512.000000pt" height="512.000000pt" viewBox="0 0 512.000000 512.000000"
 preserveAspectRatio="xMidYMid meet">
<metadata>
Created by potrace 1.16, written by Peter Selinger 2001-2019
</metadata>
<g transform="translate(0.000000,512.000000) scale(0.100000,-0.100000)"
fill="#000000" stroke="none">
<path d="M2365 4474 c-459 -30 -878 -139 -1280 -333 -345 -167 -617 -357 -897
-629 -163 -159 -188 -200 -188 -304 0 -82 18 -129 68 -182 53 -55 103 -76 187
-76 104 0 135 19 304 183 449 435 976 695 1611 794 90 14 175 18 390 18 215 0
300 -4 390 -18 636 -99 1162 -358 1611 -794 167 -162 205 -185 304 -185 78 0
138 25 188 82 52 57 67 97 67 177 -1 97 -23 139 -138 256 -538 549 -1260 904
-2022 992 -134 15 -481 26 -595 19z"/>
<path d="M2320 3483 c-103 -11 -297 -49 -408 -79 -293 -80 -553 -209 -812
-403 -149 -111 -352 -311 -380 -373 -50 -114 -32 -221 53 -303 58 -56 105 -75
188 -75 84 1 129 28 263 158 201 195 396 325 622 417 253 102 438 138 714 138
276 0 461 -36 714 -138 226 -92 421 -222 622 -417 137 -133 178 -157 269 -158
193 0 316 194 237 373 -22 50 -139 176 -257 278 -372 319 -802 510 -1288 574
-108 14 -436 19 -537 8z"/>
<path d="M2420 2504 c-347 -44 -630 -177 -860 -404 -102 -101 -145 -161 -161
-224 -51 -202 142 -377 341 -311 43 14 70 35 159 124 201 203 402 291 661 291
258 0 466 -91 660 -290 53 -53 111 -105 130 -115 52 -27 150 -31 207 -10 164
63 222 256 120 404 -46 67 -191 207 -285 274 -161 116 -377 207 -572 243 -84
15 -333 26 -400 18z"/>
<path d="M2420 1501 c-112 -36 -209 -124 -263 -239 -30 -63 -32 -74 -32 -177
1 -130 20 -188 89 -276 49 -63 113 -108 195 -140 79 -31 223 -31 302 0 82 32
146 77 195 140 105 133 123 322 47 475 -30 60 -111 147 -167 180 -97 57 -255
73 -366 37z"/>
</g>
</svg>
